<svg width="15" height="16" viewBox="0 0 15 16" fill="#212127" xmlns="http://www.w3.org/2000/svg">
<path d="M0.783684 4.71026H4.23581C4.32643 4.71026 4.39979 4.6369 4.39979 4.54628V1.09415C4.39979 1.00353 4.32643 0.930176 4.23581 0.930176H0.783684C0.693066 0.934491 0.624023 1.00353 0.624023 1.09415V4.54628C0.624023 4.6369 0.693066 4.71026 0.783684 4.71026Z" />
<path d="M5.96207 4.71026H9.4142C9.50482 4.71026 9.57818 4.6369 9.57818 4.54628V1.09415C9.57818 1.00353 9.50482 0.930176 9.4142 0.930176H5.96207C5.87145 0.930176 5.7981 1.00353 5.7981 1.09415V4.54628C5.80241 4.6369 5.87145 4.71026 5.96207 4.71026Z"/>
<path d="M14.5922 0.934082H11.14C11.0494 0.934082 10.9761 1.00744 10.9761 1.09806V4.55019C10.9761 4.64081 11.0494 4.71416 11.14 4.71416H14.5922C14.6828 4.71416 14.7562 4.64081 14.7562 4.55019V1.09374C14.7562 1.00312 14.6828 0.934082 14.5922 0.934082Z"/>
<path d="M0.784093 9.88848H4.23622C4.32684 9.88848 4.4002 9.81512 4.4002 9.72451V6.27237C4.4002 6.18176 4.32684 6.1084 4.23622 6.1084H0.784093C0.693475 6.1084 0.620117 6.18176 0.620117 6.27237V9.72451C0.624432 9.81512 0.693475 9.88848 0.784093 9.88848Z"/>
<path d="M5.96207 9.88848H9.4142C9.50482 9.88848 9.57818 9.81512 9.57818 9.72451V6.27237C9.57818 6.18176 9.50482 6.1084 9.4142 6.1084H5.96207C5.87145 6.1084 5.7981 6.18176 5.7981 6.27237V9.72451C5.80241 9.81512 5.87145 9.88848 5.96207 9.88848Z"/>
<path d="M14.5922 6.11328H11.14C11.0494 6.11328 10.9761 6.18664 10.9761 6.27726V9.72939C10.9761 9.82001 11.0494 9.89336 11.14 9.89336H14.5922C14.6828 9.89336 14.7562 9.82001 14.7562 9.72939V6.27726C14.7562 6.18232 14.6828 6.11328 14.5922 6.11328Z"/>
<path d="M0.784093 15.0662H4.23622C4.32684 15.0662 4.4002 14.9929 4.4002 14.9022V11.4501C4.4002 11.3595 4.32684 11.2861 4.23622 11.2861H0.784093C0.693475 11.2861 0.620117 11.3595 0.620117 11.4501V14.9022C0.624432 14.9929 0.693475 15.0662 0.784093 15.0662Z"/>
<path d="M5.96207 15.0662H9.4142C9.50482 15.0662 9.57818 14.9929 9.57818 14.9022V11.4501C9.57818 11.3595 9.50482 11.2861 9.4142 11.2861H5.96207C5.87145 11.2861 5.7981 11.3595 5.7981 11.4501V14.9022C5.80241 14.9929 5.87145 15.0662 5.96207 15.0662Z"/>
<path d="M14.5922 11.291H11.14C11.0494 11.291 10.9761 11.3644 10.9761 11.455V14.9071C10.9761 14.9977 11.0494 15.0711 11.14 15.0711H14.5922C14.6828 15.0711 14.7562 14.9977 14.7562 14.9071V11.455C14.7562 11.3601 14.6828 11.291 14.5922 11.291Z"/>
</svg>
