<svg width="20" height="20" viewBox="0 0 21 21" fill="white" xmlns="http://www.w3.org/2000/svg">
	<path d="M10.1959 20.3917C4.57412 20.3917 0 15.8176 0 10.1959C0 4.57412 4.57412 0 10.1959 0C15.8176 0 20.3917 4.57412 20.3917 10.1959C20.3917 15.8176 15.8176 20.3917 10.1959 20.3917ZM10.1959 0.86012C5.04805 0.86012 0.86012 5.04805 0.86012 10.1959C0.86012 15.3437 5.04805 19.5316 10.1959 19.5316C15.3437 19.5316 19.5316 15.3437 19.5316 10.1959C19.5316 5.04805 15.3437 0.86012 10.1959 0.86012Z"/>
	<path d="M15.7855 10.626H4.60389C4.3665 10.626 4.17383 10.4333 4.17383 10.1959C4.17383 9.95854 4.3665 9.76587 4.60389 9.76587H15.7855C16.0228 9.76587 16.2155 9.95854 16.2155 10.1959C16.2155 10.4333 16.0228 10.626 15.7855 10.626Z"/>
</svg>
