<svg width="20" height="20" viewBox="0 0 20 20" fill="white" xmlns="http://www.w3.org/2000/svg">
	<path d="M10 20C4.48625 20 0 15.5138 0 10C0 4.48625 4.48625 0 10 0C15.5138 0 20 4.48625 20 10C20 15.5138 15.5138 20 10 20ZM10 0.843597C4.95107 0.843597 0.843597 4.95107 0.843597 10C0.843597 15.0489 4.95107 19.1564 10 19.1564C15.0489 19.1564 19.1564 15.0489 19.1564 10C19.1564 4.95107 15.0489 0.843597 10 0.843597Z"/>
	<path d="M9.99992 15.9055C9.76709 15.9055 9.57812 15.7165 9.57812 15.4837V4.51689C9.57812 4.28406 9.76709 4.09509 9.99992 4.09509C10.2328 4.09509 10.4217 4.28406 10.4217 4.51689V15.4837C10.4217 15.7165 10.2328 15.9055 9.99992 15.9055Z"/>
	<path d="M15.4823 10.4218H4.51555C4.28272 10.4218 4.09375 10.2329 4.09375 10C4.09375 9.76721 4.28272 9.57825 4.51555 9.57825H15.4823C15.7151 9.57825 15.9041 9.76721 15.9041 10C15.9041 10.2329 15.7151 10.4218 15.4823 10.4218Z"/>
</svg>
