<svg width="15" height="15" viewBox="0 0 15 15" fill="black" xmlns="http://www.w3.org/2000/svg">
    <path fill-rule="evenodd" clip-rule="evenodd" d="M13.1855 2.91649H12.1909V1.92196C12.1909 1.09807 11.523 0.430176 10.6991 0.430176H2.24569C1.4218 0.430176 0.753906 1.09807 0.753906 1.92196V10.3754C0.753906 11.1993 1.4218 11.8672 2.24569 11.8672H3.24022V12.8617C3.24022 13.6856 3.90811 14.3535 4.732 14.3535H13.1855C14.0094 14.3535 14.6772 13.6856 14.6772 12.8617V4.40827C14.6772 3.58438 14.0094 2.91649 13.1855 2.91649ZM1.74843 10.3754V1.92196C1.74843 1.64733 1.97106 1.4247 2.24569 1.4247H10.6991C10.9738 1.4247 11.1964 1.64733 11.1964 1.92196V10.3754C11.1964 10.65 10.9738 10.8727 10.6991 10.8727H2.24569C1.97106 10.8727 1.74843 10.65 1.74843 10.3754ZM13.6827 12.8617C13.6827 13.1364 13.4601 13.359 13.1855 13.359H4.732C4.45737 13.359 4.23474 13.1364 4.23474 12.8617V11.8672H10.6991C11.523 11.8672 12.1909 11.1993 12.1909 10.3754V3.91101H13.1855C13.4601 3.91101 13.6827 4.13364 13.6827 4.40827V12.8617Z"/>
</svg>
