<svg width="11" height="18" viewBox="0 0 11 18" fill="none" xmlns="http://www.w3.org/2000/svg">
<path d="M10.692 11.436C10.692 12.408 10.332 13.236 9.612 13.92C8.904 14.592 7.872 15 6.516 15.144V17.16H5.04V15.162C4.152 15.102 3.312 14.94 2.52 14.676C1.728 14.412 1.098 14.076 0.63 13.668L1.44 11.85C1.884 12.21 2.424 12.516 3.06 12.768C3.696 13.008 4.356 13.158 5.04 13.218V9.618C4.188 9.414 3.474 9.192 2.898 8.952C2.334 8.7 1.86 8.34 1.476 7.872C1.092 7.392 0.9 6.762 0.9 5.982C0.9 5.01 1.254 4.182 1.962 3.498C2.67 2.814 3.696 2.406 5.04 2.274V0.239999H6.516V2.238C7.188 2.274 7.842 2.388 8.478 2.58C9.126 2.772 9.69 3.024 10.17 3.336L9.432 5.154C8.52 4.626 7.548 4.302 6.516 4.182V7.818C7.38 8.022 8.094 8.244 8.658 8.484C9.234 8.724 9.714 9.084 10.098 9.564C10.494 10.032 10.692 10.656 10.692 11.436ZM3.222 5.874C3.222 6.27 3.378 6.588 3.69 6.828C4.002 7.068 4.452 7.272 5.04 7.44V4.236C4.428 4.332 3.972 4.524 3.672 4.812C3.372 5.1 3.222 5.454 3.222 5.874ZM6.516 13.182C7.152 13.086 7.62 12.9 7.92 12.624C8.232 12.348 8.388 12.006 8.388 11.598C8.388 11.19 8.226 10.866 7.902 10.626C7.578 10.374 7.116 10.164 6.516 9.996V13.182Z" fill="#212127"/>
</svg>
