<svg width="26" height="26" viewBox="0 0 26 26" fill="none" xmlns="http://www.w3.org/2000/svg">
<circle cx="13" cy="13" r="13" fill="#0E0E0E"/>
<path d="M8.316 9.228C8.316 9.984 8.036 10.628 7.476 11.16C6.92533 11.6827 6.12267 12 5.068 12.112V13.68H3.92V12.126C3.22933 12.0793 2.576 11.9533 1.96 11.748C1.344 11.5427 0.854 11.2813 0.49 10.964L1.12 9.55C1.46533 9.83 1.88533 10.068 2.38 10.264C2.87467 10.4507 3.388 10.5673 3.92 10.614V7.814C3.25733 7.65533 2.702 7.48267 2.254 7.296C1.81533 7.1 1.44667 6.82 1.148 6.456C0.849333 6.08267 0.7 5.59267 0.7 4.986C0.7 4.23 0.975333 3.586 1.526 3.054C2.07667 2.522 2.87467 2.20467 3.92 2.102V0.519999H5.068V2.074C5.59067 2.102 6.09933 2.19067 6.594 2.34C7.098 2.48933 7.53667 2.68533 7.91 2.928L7.336 4.342C6.62667 3.93133 5.87067 3.67933 5.068 3.586V6.414C5.74 6.57267 6.29533 6.74533 6.734 6.932C7.182 7.11867 7.55533 7.39867 7.854 7.772C8.162 8.136 8.316 8.62133 8.316 9.228ZM2.506 4.902C2.506 5.21 2.62733 5.45733 2.87 5.644C3.11267 5.83067 3.46267 5.98933 3.92 6.12V3.628C3.444 3.70267 3.08933 3.852 2.856 4.076C2.62267 4.3 2.506 4.57533 2.506 4.902ZM5.068 10.586C5.56267 10.5113 5.92667 10.3667 6.16 10.152C6.40267 9.93733 6.524 9.67133 6.524 9.354C6.524 9.03667 6.398 8.78467 6.146 8.598C5.894 8.402 5.53467 8.23867 5.068 8.108V10.586Z" fill="white" transform="translate(8.5,6)"/>
</svg>
