<svg width="22" height="14" viewBox="0 0 22 14" fill="black" xmlns="http://www.w3.org/2000/svg">
    <path fill-rule="evenodd" clip-rule="evenodd" d="M21.8218 6.45733C21.655 6.23496 17.7636 0.98151 11.3427 0.98151C7.0906 0.832424 3.078 2.94803 0.798724 6.54071C0.626363 6.85582 0.651637 7.24215 0.86358 7.53211C1.03036 7.77301 4.9218 13.0265 11.3427 13.0265C17.7636 13.0265 21.655 7.77301 21.8218 7.55064C22.0597 7.22503 22.0597 6.78293 21.8218 6.45733ZM15.5121 7.00398C15.5121 9.30668 13.6454 11.1734 11.3427 11.1734C9.03999 11.1734 7.17328 9.30668 7.17328 7.00398C7.17328 4.70128 9.03999 2.83458 11.3427 2.83458C13.6433 2.83967 15.507 4.7034 15.5121 7.00398ZM2.76298 6.93913C3.63832 5.74902 4.7725 4.77324 6.07997 4.0854C5.58252 4.97777 5.32102 5.98233 5.32021 7.00398C5.32114 7.88932 5.5206 8.76317 5.90393 9.56122C4.73236 8.84828 3.67372 7.96452 2.76298 6.93913L2.76298 6.93913ZM16.7814 9.57975C17.1639 8.77482 17.3633 7.89515 17.3652 7.00398C17.3644 6.11566 17.1649 5.23877 16.7814 4.43748C17.9274 5.14089 18.9665 6.00521 19.8668 7.00398C18.9698 8.00877 17.9303 8.87659 16.7814 9.57975V9.57975ZM11.3427 9.32032C12.622 9.32032 13.659 8.28326 13.659 7.00398C13.659 5.72471 12.622 4.68765 11.3427 4.68765C10.0634 4.68765 9.02635 5.72471 9.02635 7.00398C9.02635 8.28326 10.0634 9.32032 11.3427 9.32032H11.3427ZM11.3427 6.54072C11.5985 6.54072 11.806 6.74813 11.806 7.00398C11.806 7.25984 11.5985 7.46725 11.3427 7.46725C11.0868 7.46725 10.8794 7.25984 10.8794 7.00398C10.8794 6.74813 11.0868 6.54072 11.3427 6.54072Z"/>
</svg>
