<svg width="15" height="17" viewBox="0 0 15 17" fill="none" xmlns="http://www.w3.org/2000/svg">
<path fill-rule="evenodd" clip-rule="evenodd" d="M11.3387 3.74522C10.7991 3.19445 10.2147 2.68774 9.65265 2.18104C8.95576 1.56418 8.23639 0.903258 7.60695 0.220307C7.47206 0.0660921 7.26974 0 7.04494 0C6.84262 0.0220307 6.64029 0.132184 6.52789 0.30843C5.58372 1.74042 5.56124 3.76725 6.46045 5.59579C6.55037 5.77204 6.64029 5.92626 6.73021 6.08047C6.84262 6.30078 6.95502 6.52108 7.06742 6.74139C7.35966 7.38028 7.33718 8.10729 6.99998 8.68009C6.61781 9.31898 5.89844 9.62741 5.08915 9.49523C4.27986 9.36304 3.62793 8.81228 3.47057 8.10729C3.44809 7.97511 3.42561 7.79886 3.44809 7.60059C3.49305 6.91764 3.56049 6.16859 3.62793 5.57376C3.76282 4.03162 3.76282 4.03162 3.53801 3.85537C3.40313 3.76725 3.22329 3.74522 3.08841 3.83334C2.68376 4.03162 2.36904 4.34005 2.07679 4.62644L2.03183 4.67051C-0.148756 6.85154 -0.643322 10.4866 0.885338 13.1303C2.14423 15.2673 4.61707 16.6772 7.13486 16.6772C7.22478 16.6772 7.33718 16.6772 7.4271 16.6772C10.0348 16.5671 12.5301 14.9368 13.6317 12.6236C14.2386 11.3458 14.441 9.89178 14.1937 8.54791C13.8789 6.93967 12.9573 5.37549 11.3387 3.74522ZM12.8224 12.2491C11.8557 14.2759 9.67513 15.7079 7.38214 15.796C5.08915 15.8841 2.79616 14.6504 1.67215 12.7117C0.323331 10.3985 0.750456 7.22607 2.66128 5.3094L2.70624 5.26533C2.72872 5.2433 2.7512 5.22127 2.7512 5.22127C2.7512 5.3094 2.72872 5.41955 2.72872 5.5297C2.68376 6.12453 2.61632 6.87358 2.54888 7.57856C2.5264 7.86496 2.54888 8.10729 2.59384 8.3276C2.84112 9.4071 3.76282 10.2222 4.95427 10.3985C6.12325 10.5747 7.2023 10.1121 7.76431 9.16477C8.25887 8.34963 8.30383 7.33622 7.89919 6.43296C7.78679 6.19062 7.65191 5.94829 7.5395 5.72798C7.44958 5.57376 7.38214 5.41955 7.29222 5.26533C6.59533 3.83334 6.55037 2.2251 7.15734 1.0795C7.76431 1.71839 8.41624 2.29119 9.04568 2.86399C9.58521 3.34866 10.1697 3.8774 10.6867 4.40614C12.1704 5.90422 13.0247 7.31419 13.2945 8.72415C13.5193 9.86975 13.3619 11.1255 12.8224 12.2491Z" fill="#4925E9" />
<path d="M 6.5711078,15.761091 C 5.9357226,15.680149 5.485445,15.577526 5.005988,15.404386 3.0710477,14.705646 1.6301818,13.204493 1.1249159,11.360925 0.98333149,10.844324 0.93084749,10.480554 0.91563101,9.9103561 0.89560956,9.1601047 0.97104981,8.5552032 1.1671948,7.8932456 1.4457296,6.9532359 2.0109689,5.9727696 2.6146494,5.382485 L 2.7447826,5.2552395 2.731404,5.3443114 c -0.00736,0.04899 -0.02012,0.1921407 -0.02836,0.3181137 -0.00824,0.1259731 -0.048875,0.6060523 -0.0903,1.0668427 -0.1040945,1.1578865 -0.099686,1.4140147 0.031353,1.8216304 0.3032799,0.9433964 1.1659295,1.6601988 2.2190041,1.8438398 0.2922657,0.05097 0.8627421,0.05143 1.1290309,9.16e-4 C 7.0704202,10.191106 7.8647877,9.4116711 8.1170855,8.3106444 8.1574745,8.1343868 8.1702146,7.9901909 8.1711821,7.6983543 8.1732486,7.0750613 8.0782056,6.7398648 7.6841031,5.9805399 7.2140328,5.0748464 7.1457719,4.9282534 7.0307351,4.5774101 6.6391633,3.383178 6.6571377,2.2194822 7.0817705,1.2732742 c 0.037891,-0.084433 0.076077,-0.1535137 0.084858,-0.1535137 0.00878,0 0.1704092,0.1555315 0.3591741,0.3456256 0.1887651,0.1900941 0.6981017,0.6682191 1.1318587,1.0625 1.2993436,1.1810904 1.4306937,1.3040404 1.9369607,1.8130878 1.700648,1.7099888 2.554494,3.2003938 2.747175,4.7952536 0.176959,1.4647185 -0.283509,3.0243445 -1.253281,4.2449295 -0.569608,0.716925 -1.326827,1.316711 -2.209025,1.749748 -0.9300613,0.456531 -1.7723329,0.652042 -2.7731922,0.643725 -0.2523639,-0.0021 -0.4932,-0.0082 -0.535191,-0.01354 z" fill="#4925E9" />
</svg>
