<svg width="26" height="32" viewBox="0 0 26 32" fill="none" xmlns="http://www.w3.org/2000/svg">
<path d="M11.4031 3.3375C13.8665 5.64197 15.0188 8.62188 15.0585 12.754C15.0585 13.8665 15.8531 14.8201 16.9259 14.979C17.0451 15.0188 17.1643 15.0188 17.2835 15.0188C18.5152 15.0188 19.4688 14.0652 19.5085 12.8335C19.5085 12.7143 19.5085 12.6348 19.5085 12.5156C19.5085 12.3567 19.5085 11.9991 19.5482 11.6018C19.5482 11.2442 19.9853 11.0853 20.2237 11.3237C22.3295 13.6281 23.5612 16.608 23.5612 19.6277C23.5612 22.2103 22.3295 24.8723 20.2237 26.8987C18.0781 28.9648 15.2969 30.117 12.5554 30.117C9.81384 30.117 7.0326 28.925 4.88706 26.8987C2.78125 24.8723 1.54955 22.2103 1.54955 19.6277C1.54955 15.5353 4.05268 12.6746 6.23795 10.2112C8.74108 7.39018 10.0522 5.08572 10.2906 3.21831C10.3304 2.90045 10.688 2.78125 10.9263 2.97991L11.4031 3.3375ZM8.97947 0C8.70134 0 8.46295 0.119194 8.30402 0.357587C8.14509 0.635712 8.38349 1.2317 8.66162 1.98661C9.21786 3.69509 7.50938 6.43661 5.08572 9.17813C2.82099 11.7607 0 14.9393 0 19.6674C0 26.0246 5.99956 31.7857 12.5951 31.7857C19.1906 31.7857 25.1902 26.0246 25.1902 19.6674C25.1902 15.6545 23.2831 11.6813 20.1045 9.0192L19.7072 8.70134C19.5085 8.54242 19.3098 8.46295 19.0714 8.46295C18.7139 8.46295 18.3563 8.66161 18.1973 9.0192C18.0781 9.29733 17.9589 12.0786 17.9589 12.5554C17.9589 12.6348 17.9589 12.7938 17.9589 12.8335C17.9589 13.1911 17.6808 13.4692 17.3232 13.4692C17.2835 13.4692 17.2438 13.4692 17.204 13.4692C16.8862 13.4295 16.6478 13.1116 16.6478 12.7938C16.608 8.0259 15.1777 4.6884 12.4759 2.18527C11.2442 1.03304 9.85358 0 8.97947 0Z" fill="url(#paint0_linear)"/>
<path d="M12.595 18.6344L15.0981 21.6144L15.1378 21.6541L15.1776 21.6938C15.853 22.3693 16.2106 23.2831 16.2106 24.2367C16.2106 26.2233 14.5816 27.8523 12.595 27.8523C10.6084 27.8523 8.97936 26.2233 8.97936 24.2367C8.97936 23.2831 9.33695 22.3693 10.0124 21.6938L10.0521 21.6541L10.0919 21.6144L12.595 18.6344ZM12.595 16.8068C12.2771 16.8068 11.9593 16.926 11.7209 17.2041L8.86017 20.621C7.94633 21.5746 7.35034 22.8461 7.35034 24.2764C7.35034 27.1371 9.69454 29.4813 12.5553 29.4813C15.416 29.4813 17.7602 27.1371 17.7602 24.2764C17.7602 22.8461 17.2039 21.5746 16.2503 20.621L13.3896 17.2041C13.2307 16.926 12.9128 16.8068 12.595 16.8068Z" fill="url(#paint1_linear)"/>
<defs>
<linearGradient id="paint0_linear" x1="-5.54563e-09" y1="16.0675" x2="25.4522" y2="16.0675" gradientUnits="userSpaceOnUse">
<stop stop-color="#7BF1F5"/>
<stop offset="0.5" stop-color="#C439DD"/>
<stop offset="1" stop-color="#4925E9"/>
</linearGradient>
<linearGradient id="paint1_linear" x1="7.35034" y1="23.2137" x2="17.8684" y2="23.2137" gradientUnits="userSpaceOnUse">
<stop stop-color="#7BF1F5"/>
<stop offset="0.5" stop-color="#C439DD"/>
<stop offset="1" stop-color="#4925E9"/>
</linearGradient>
</defs>
</svg>
