<svg width="17" height="22" viewBox="0 0 17 22" fill="none" xmlns="http://www.w3.org/2000/svg">
<path d="M6.37484 21.3759C5.2475 20.7087 4.44227 19.5354 4.39626 18.1549C4.32724 15.5782 6.12176 14.3128 7.18007 12.5873C8.69851 10.1026 8.28439 8.56114 8.28439 8.56114C8.28439 8.56114 9.54976 9.27435 10.286 11.9201C10.516 12.7024 10.5621 13.4846 10.493 14.2208C10.378 16.0843 9.57277 17.7638 9.57277 17.7638C9.57277 17.7638 10.9762 17.4647 11.3673 14.911C12.0115 15.5782 12.6097 16.5445 12.6787 17.5568C12.7937 19.3053 11.7584 20.9158 10.194 21.606C12.9087 20.9848 14.8413 18.6841 15.5085 17.0046C16.3598 14.888 16.1297 13.0014 15.9916 11.368C15.8076 9.13631 16.5898 7.47983 16.5898 7.47983C16.5898 7.47983 15.0944 7.91695 13.9901 9.73449C13.4839 10.5627 13.2769 11.7821 13.2769 11.7821C13.2769 11.7821 13.3919 10.7008 12.6787 8.72219C11.9655 6.78962 11.3213 6.09942 10.9302 4.67301C10.424 2.76345 11.5513 0.899902 11.5513 0.899902C11.5513 0.899902 7.08804 1.72814 5.06345 5.61628C3.26893 9.06729 4.00514 11.1379 4.00514 11.1379C4.00514 11.1379 3.24592 10.4247 2.85481 9.4354C2.46369 8.44611 2.55572 7.54885 2.55572 7.54885C2.55572 7.54885 -0.61921 11.0459 0.922243 15.4402C1.95754 18.5231 3.95913 20.5476 6.37484 21.3759Z" fill="#D90B4C"/>
</svg>
