<svg width="22" height="12" viewBox="0 0 22 12" fill="black" xmlns="http://www.w3.org/2000/svg">
<g clip-path="url(#clip0)">
<path d="M8.69133 4.75691C9.05107 5.11665 9.41078 5.47636 9.77052 5.83607C10.342 6.40754 10.9109 6.97648 11.4824 7.54793C11.615 7.68062 11.7477 7.81325 11.8804 7.94594C12.1636 8.22911 12.684 8.24952 12.9621 7.94594C13.2427 7.63978 13.2657 7.16524 12.9621 6.86421C12.6024 6.5045 12.2427 6.14476 11.8829 5.78505C11.3115 5.21357 10.7425 4.64467 10.1711 4.07316C10.0384 3.94053 9.90574 3.80784 9.77305 3.67521C9.48988 3.39198 8.96943 3.37159 8.69133 3.67521C8.41072 3.9788 8.38774 4.45332 8.69133 4.75691Z"/>
<path d="M14.73 7.9278C15.2403 7.41752 15.7505 6.90729 16.2608 6.39704C17.0695 5.58829 17.8783 4.77958 18.687 3.97083C18.8732 3.78461 19.057 3.6009 19.2431 3.41465C19.5263 3.13147 19.5468 2.61103 19.2431 2.33295C18.937 2.05231 18.4625 2.02933 18.1615 2.33295C17.6512 2.84321 17.141 3.35346 16.6307 3.86368C15.8219 4.67243 15.0133 5.48114 14.2045 6.28989C14.0183 6.47614 13.8346 6.65983 13.6483 6.84607C13.3651 7.12925 13.3448 7.64969 13.6483 7.9278C13.9519 8.20841 14.4265 8.22883 14.73 7.9278Z"/>
<path d="M6.9428 3.6601C6.43256 4.17035 5.91977 4.68314 5.40954 5.19336C4.59569 6.00724 3.7793 6.82361 2.96546 7.63745C2.77923 7.82367 2.59299 8.00992 2.4042 8.19873C2.12101 8.48191 2.10059 9.00235 2.4042 9.28043C2.71033 9.56107 3.18487 9.58405 3.48591 9.28043C3.99616 8.77017 4.50895 8.25739 5.01919 7.74716C5.83303 6.93332 6.64942 6.11692 7.46326 5.3031C7.6495 5.11685 7.83573 4.93061 8.02453 4.74182C8.30771 4.45865 8.32812 3.93817 8.02453 3.6601C7.71839 3.37946 7.24386 3.35904 6.9428 3.6601Z"/>
<path d="M2.4043 9.28065C2.42982 9.30616 2.45277 9.3368 2.47828 9.36225C2.33542 9.22199 2.4043 9.26277 2.44512 9.32405C2.48339 9.3827 2.51655 9.44648 2.54717 9.51277C2.52166 9.45155 2.49615 9.39033 2.47063 9.32911C2.51655 9.43879 2.54717 9.54853 2.56247 9.66584C2.55227 9.59699 2.54461 9.53065 2.53441 9.4618C2.54717 9.56635 2.54717 9.66841 2.53441 9.77302C2.54461 9.70411 2.55227 9.63777 2.56247 9.56892C2.54717 9.68629 2.51655 9.79597 2.47063 9.90565C2.49615 9.84443 2.52166 9.78321 2.54717 9.72199C2.5191 9.78834 2.48594 9.84956 2.44512 9.91078C2.4043 9.97199 2.33542 10.0128 2.47828 9.87251C2.45277 9.89808 2.42982 9.9286 2.4043 9.95417C2.38389 9.97456 2.34818 10.0256 2.32267 10.0281C2.35583 10.0026 2.38644 9.97968 2.41961 9.95417C2.3992 9.96949 2.38134 9.98219 2.36094 9.99494C2.30225 10.0333 2.23848 10.0664 2.17214 10.097C2.23337 10.0715 2.2946 10.046 2.35583 10.0205C2.24612 10.0664 2.13642 10.0945 2.01907 10.1124C2.08795 10.1021 2.15428 10.0945 2.22317 10.0842C2.11857 10.097 2.01652 10.097 1.91192 10.0842C1.9808 10.0945 2.04713 10.1021 2.11602 10.1124C1.99866 10.097 1.88896 10.0664 1.77926 10.0205C1.84048 10.046 1.90172 10.0715 1.96294 10.097C1.89661 10.069 1.83539 10.0358 1.77415 9.99494C1.71293 9.95417 1.6721 9.88526 1.81241 10.0281C1.78691 10.0026 1.75629 9.97968 1.73078 9.95417C1.71037 9.93379 1.65935 9.89808 1.6568 9.87251C1.68231 9.90565 1.70527 9.93629 1.73078 9.96949C1.71547 9.94905 1.70271 9.93122 1.68995 9.91078C1.65169 9.85212 1.61853 9.78834 1.58791 9.72199C1.61342 9.78321 1.63894 9.84443 1.66445 9.90565C1.61853 9.79597 1.59047 9.68629 1.57261 9.56892C1.58281 9.63777 1.59047 9.70411 1.60067 9.77302C1.58791 9.66841 1.58791 9.56635 1.60067 9.4618C1.59047 9.53065 1.58281 9.59699 1.57261 9.66584C1.58791 9.54853 1.61853 9.43879 1.66445 9.32911C1.63894 9.39033 1.61342 9.45155 1.58791 9.51277C1.61598 9.44648 1.64914 9.3852 1.68995 9.32405C1.73078 9.26277 1.79967 9.22199 1.6568 9.36225C1.68231 9.3368 1.70527 9.30616 1.73078 9.28065C1.75119 9.2602 1.78691 9.20918 1.81241 9.20661C1.77926 9.23213 1.74864 9.25514 1.71547 9.28065C1.73588 9.26533 1.75374 9.25257 1.77415 9.23982C1.83283 9.20155 1.89661 9.16841 1.96294 9.13777C1.90172 9.16322 1.84048 9.18879 1.77926 9.2143C1.88896 9.16841 1.99866 9.13777 2.11602 9.12245C2.04713 9.1327 1.9808 9.14027 1.91192 9.15052C2.01652 9.13777 2.11857 9.13777 2.22317 9.15052C2.15428 9.14027 2.08795 9.1327 2.01906 9.12245C2.13642 9.13777 2.24612 9.16841 2.35583 9.2143C2.2946 9.18879 2.23337 9.16322 2.17214 9.13777C2.23848 9.16584 2.2997 9.19898 2.36094 9.23982C2.37114 9.24745 2.38134 9.25257 2.39155 9.2602C2.45277 9.30616 2.43237 9.28828 2.32267 9.20661C2.34562 9.23213 2.37879 9.25514 2.4043 9.28065C2.69259 9.55873 3.20539 9.5893 3.48602 9.28065C3.7641 8.97956 3.79217 8.49738 3.48602 8.19892C2.85586 7.58918 1.94253 7.45399 1.15676 7.83155C0.462828 8.16578 -0.00405324 8.97193 0.0648326 9.73988C0.141371 10.5945 0.715391 11.3573 1.57005 11.564C2.41706 11.7681 3.25386 11.4211 3.74624 10.7144C4.28455 9.94135 4.12382 8.85456 3.48346 8.19636C3.20283 7.90809 2.67728 7.89533 2.40175 8.19636C2.12111 8.50758 2.10581 8.97193 2.4043 9.28065Z"/>
<path d="M8.69833 2.98681C8.72387 3.01236 8.74682 3.04297 8.7749 3.06848C8.63202 2.92559 8.70089 2.96896 8.74173 3.03021C8.77999 3.09143 8.81317 3.15268 8.84121 3.21899C8.8157 3.15774 8.79019 3.09655 8.76468 3.03531C8.80548 3.13479 8.83355 3.23428 8.84887 3.33889C8.83865 3.27002 8.83102 3.2037 8.8208 3.13479C8.83612 3.25216 8.83612 3.36697 8.82333 3.48431C8.83355 3.41543 8.84121 3.34909 8.85141 3.28021C8.83355 3.39758 8.80294 3.50982 8.75705 3.6195C8.78253 3.55832 8.80804 3.4971 8.83355 3.43585C8.80294 3.50219 8.76977 3.56595 8.7315 3.62463C8.6907 3.68585 8.62182 3.72668 8.76468 3.58636C8.73916 3.61187 8.71618 3.64248 8.68814 3.668C8.67028 3.68585 8.63202 3.73944 8.6065 3.74197C8.63968 3.71649 8.67285 3.69095 8.70346 3.668C8.68304 3.68332 8.66516 3.69607 8.64477 3.7088C8.58609 3.7471 8.5223 3.78027 8.45855 3.80832C8.51977 3.7828 8.58096 3.75729 8.64221 3.73178C8.54525 3.77005 8.44577 3.79812 8.34118 3.81598C8.41006 3.80578 8.47641 3.79809 8.54525 3.7879C8.43048 3.80322 8.31564 3.80322 8.20086 3.7879C8.26974 3.79809 8.33606 3.80578 8.40496 3.81598C8.30035 3.80069 8.20086 3.77261 8.10391 3.73434C8.16516 3.75982 8.22634 3.78537 8.28759 3.81085C8.22128 3.7828 8.15747 3.75219 8.09881 3.71392C8.06817 3.69607 8.04013 3.67056 8.00952 3.65268C8.20086 3.76751 8.09372 3.71649 8.04013 3.66546C8.01205 3.63995 7.9891 3.61187 7.96362 3.5838C7.90747 3.52514 8.08349 3.75473 7.9942 3.6221C7.95083 3.55832 7.91513 3.48941 7.88195 3.418C7.90747 3.47921 7.93298 3.54043 7.95849 3.60165C7.91256 3.49197 7.88195 3.38226 7.86666 3.26489C7.87683 3.3338 7.88452 3.40011 7.89471 3.46902C7.88195 3.36441 7.88195 3.26236 7.89471 3.15774C7.88452 3.22665 7.87683 3.29297 7.86666 3.36187C7.88195 3.2445 7.91256 3.13479 7.95849 3.02511C7.93298 3.08633 7.90747 3.14755 7.88195 3.2088C7.91 3.14245 7.94317 3.08123 7.984 3.01999C8.02484 2.95877 8.09372 2.91797 7.95083 3.05825C7.97634 3.03274 7.99932 3.00213 8.02737 2.97662C8.04779 2.9562 8.08349 2.90521 8.10904 2.90008C8.07586 2.92559 8.04522 2.94854 8.01205 2.97409C8.03247 2.95877 8.05032 2.94601 8.07077 2.93325C8.12942 2.89499 8.1932 2.86181 8.25952 2.8312C8.1983 2.85672 8.13708 2.88223 8.07586 2.90774C8.18554 2.86181 8.29525 2.83377 8.41262 2.81591C8.34372 2.82611 8.2774 2.83377 8.20849 2.84396C8.31311 2.83377 8.41516 2.83377 8.51977 2.84396C8.45086 2.83377 8.38455 2.82611 8.31567 2.81591C8.43301 2.83377 8.54272 2.86435 8.65243 2.90774C8.59118 2.88223 8.52996 2.85672 8.46875 2.8312C8.53506 2.86181 8.59631 2.89242 8.65753 2.93325C8.66775 2.94091 8.67794 2.94601 8.68814 2.95364C8.74936 2.99957 8.72897 2.98172 8.61926 2.90008C8.63968 2.93835 8.67285 2.96133 8.69833 2.98681C8.98663 3.26489 9.49942 3.29553 9.78006 2.98681C10.0582 2.68579 10.0862 2.20361 9.78006 1.90512C9.1499 1.29281 8.23404 1.15759 7.44824 1.53265C6.75177 1.86429 6.28491 2.67303 6.35632 3.44348C6.39715 3.90527 6.56295 4.30838 6.86657 4.66043C7.11914 4.95382 7.48907 5.17831 7.8641 5.27017C8.23657 5.36456 8.65753 5.36203 9.0198 5.22424C9.44329 5.06353 9.77496 4.80331 10.0352 4.43081C10.576 3.65524 10.423 2.56332 9.78262 1.90258C9.50451 1.61425 8.97644 1.6015 8.70089 1.90258C8.41516 2.2138 8.39984 2.67813 8.69833 2.98681Z"/>
<path d="M19.9165 1.65957C19.942 1.68505 19.965 1.71569 19.9905 1.7412C19.8476 1.60088 19.9165 1.64172 19.9573 1.70293C19.9956 1.76162 20.0287 1.82537 20.0593 1.89172C20.0338 1.8305 20.0084 1.76925 19.9828 1.70803C20.0287 1.81774 20.0568 1.92742 20.0747 2.04479C20.0645 1.97591 20.0568 1.90957 20.0466 1.84069C20.0593 1.9453 20.0593 2.04736 20.0466 2.15194C20.0568 2.08306 20.0645 2.01672 20.0747 1.94784C20.0593 2.06521 20.0287 2.17489 19.9828 2.28463C20.0084 2.22338 20.0338 2.16213 20.0593 2.10091C20.0313 2.16726 19.9981 2.22848 19.9573 2.28973C19.9165 2.35094 19.8476 2.39178 19.9905 2.25146C19.965 2.27694 19.942 2.30758 19.9165 2.33306C19.8961 2.35348 19.8603 2.4045 19.8349 2.40707C19.868 2.38155 19.8986 2.3586 19.9318 2.33306C19.9114 2.34838 19.8935 2.36114 19.8731 2.37392C19.8144 2.41216 19.7507 2.44534 19.6843 2.47594C19.7456 2.45043 19.8068 2.42495 19.868 2.39941C19.7583 2.44534 19.6486 2.47338 19.5313 2.49123C19.6001 2.48107 19.6665 2.47338 19.7353 2.46319C19.6308 2.47594 19.5287 2.47338 19.4241 2.46319C19.493 2.47338 19.5593 2.48107 19.6282 2.49123C19.5108 2.47594 19.4011 2.44534 19.2915 2.39941C19.3526 2.42495 19.4139 2.45043 19.4751 2.47594C19.4088 2.4479 19.3476 2.41473 19.2863 2.37392C19.2251 2.33306 19.1843 2.26418 19.3246 2.40707C19.2991 2.38155 19.2685 2.3586 19.243 2.33306C19.2226 2.31268 19.1715 2.27694 19.169 2.25146C19.1945 2.28463 19.2174 2.31521 19.243 2.34838C19.2276 2.32796 19.2149 2.31011 19.2022 2.28973C19.1639 2.23104 19.1308 2.16726 19.1001 2.10091C19.1256 2.16213 19.1511 2.22338 19.1767 2.28463C19.1308 2.17489 19.1026 2.06521 19.0848 1.94784C19.095 2.01672 19.1026 2.08306 19.1129 2.15194C19.1001 2.04736 19.1026 1.9453 19.1129 1.84069C19.1026 1.90957 19.095 1.97591 19.0848 2.04479C19.1001 1.92742 19.1308 1.81774 19.1767 1.70803C19.1511 1.76925 19.1256 1.8305 19.1001 1.89172C19.1281 1.82537 19.1613 1.76415 19.2022 1.70293C19.243 1.64172 19.3118 1.60088 19.169 1.7412C19.1945 1.71569 19.2174 1.68505 19.243 1.65957C19.2633 1.63915 19.2991 1.58813 19.3246 1.58559C19.2915 1.61108 19.2608 1.63403 19.2276 1.65957C19.2481 1.64425 19.2659 1.63149 19.2863 1.61874C19.345 1.58047 19.4088 1.54729 19.4751 1.51669C19.4139 1.5422 19.3526 1.56771 19.2915 1.59322C19.4011 1.54729 19.5108 1.51925 19.6282 1.5014C19.5593 1.51159 19.493 1.51925 19.4241 1.52944C19.5287 1.51669 19.6308 1.51669 19.7353 1.52944C19.6665 1.51925 19.6001 1.51159 19.5313 1.5014C19.6486 1.51669 19.7583 1.54729 19.868 1.59322C19.8068 1.56771 19.7456 1.5422 19.6843 1.51669C19.7507 1.54473 19.8118 1.5779 19.8731 1.61874C19.8833 1.6264 19.8935 1.63149 19.9037 1.63915C19.965 1.68505 19.9445 1.6672 19.8349 1.58559C19.8578 1.61108 19.8909 1.63403 19.9165 1.65957C20.2048 1.93764 20.7175 1.96828 20.9982 1.65957C21.2763 1.35851 21.3044 0.876335 20.9982 0.577843C20.3681 -0.0318985 19.4547 -0.167122 18.669 0.210472C17.975 0.542107 17.5081 1.35085 17.577 2.11877C17.651 2.97344 18.2276 3.73626 19.0822 3.94289C19.4573 4.03475 19.8783 4.02966 20.243 3.89187C20.6665 3.7286 21.0008 3.46838 21.261 3.09591C21.7993 2.3229 21.6386 1.23861 21.0008 0.580376C20.7201 0.292107 20.1945 0.27935 19.9191 0.580376C19.6333 0.886559 19.6206 1.35342 19.9165 1.65957Z"/>
<path d="M13.6477 7.92791C13.6732 7.95342 13.6962 7.98406 13.7217 8.00952C13.5788 7.86669 13.6477 7.91009 13.6885 7.97131C13.7268 8.02996 13.7599 8.09374 13.788 8.16009C13.7625 8.09881 13.7369 8.03765 13.7115 7.97637C13.7574 8.08605 13.7855 8.19579 13.8033 8.3131C13.7931 8.24426 13.7855 8.17791 13.7753 8.10906C13.7855 8.21368 13.7855 8.31829 13.7753 8.42285C13.7855 8.354 13.7931 8.28765 13.8033 8.21874C13.788 8.33605 13.7574 8.44579 13.7115 8.55554C13.7369 8.49426 13.7625 8.43304 13.788 8.37182C13.7599 8.43817 13.7268 8.49938 13.686 8.5606C13.6451 8.62188 13.5762 8.66265 13.7191 8.52233C13.6936 8.54785 13.6706 8.57849 13.6451 8.604C13.6247 8.62438 13.589 8.67541 13.5635 8.67797C13.5967 8.65246 13.6273 8.62945 13.6605 8.604C13.64 8.61932 13.6221 8.63207 13.6017 8.64483C13.5431 8.68304 13.4793 8.71624 13.413 8.74688C13.4742 8.72137 13.5355 8.69579 13.5967 8.67028C13.4869 8.71624 13.3773 8.74688 13.2599 8.76214C13.3288 8.75195 13.3951 8.74432 13.464 8.73412C13.3594 8.74688 13.2574 8.74688 13.1528 8.73412C13.2217 8.74432 13.288 8.75195 13.3569 8.76214C13.2394 8.74688 13.1298 8.71624 13.0201 8.67028C13.0813 8.69579 13.1426 8.72137 13.2037 8.74688C13.1374 8.71874 13.0762 8.6856 13.0149 8.64483C12.9537 8.604 12.9104 8.53509 13.0533 8.67797C13.0278 8.65246 12.9971 8.62945 12.9716 8.604C12.9512 8.58355 12.9027 8.54785 12.8951 8.52233C12.9206 8.55554 12.9435 8.58618 12.969 8.61932C12.9537 8.59887 12.941 8.57849 12.9283 8.55804C12.8899 8.49688 12.8568 8.43304 12.8262 8.36669C12.8517 8.42797 12.8772 8.48919 12.9027 8.55041C12.8619 8.45092 12.8338 8.35143 12.8185 8.24426C12.8287 8.3131 12.8364 8.37945 12.8466 8.44836C12.8313 8.33099 12.8313 8.21624 12.844 8.09881C12.8338 8.16772 12.8262 8.23406 12.816 8.30291C12.8313 8.19836 12.8594 8.09631 12.8976 7.99676C12.8721 8.05804 12.8466 8.11926 12.8211 8.18054C12.8492 8.11419 12.8823 8.05035 12.9206 7.98919C12.9589 7.92791 13.0379 7.88708 12.8874 8.0249C12.9155 7.99932 12.9358 7.96874 12.9614 7.94067C13.2446 7.63964 13.2599 7.15746 12.9614 6.85894C12.6782 6.57574 12.1578 6.55535 11.8797 6.85894C11.5991 7.16509 11.5761 7.63964 11.8797 7.94067C12.1757 8.23663 12.6655 8.22894 12.9614 7.94067C12.9869 7.91516 13.0201 7.89471 13.0431 7.86669C12.9333 7.94836 12.9104 7.96618 12.9742 7.92022C12.9894 7.91009 13.0022 7.8999 13.0176 7.88964C13.0813 7.84881 13.1502 7.8131 13.219 7.78503C13.1578 7.81054 13.0966 7.83605 13.0354 7.86157C13.1324 7.8233 13.2319 7.79522 13.3364 7.77996C13.2676 7.79016 13.2012 7.79785 13.1324 7.80798C13.2471 7.79272 13.3594 7.79016 13.4767 7.80291C13.4078 7.79272 13.3415 7.78503 13.2726 7.77484C13.3874 7.79016 13.4971 7.82079 13.6044 7.86413C13.5431 7.83862 13.4819 7.8131 13.4206 7.78759C13.4844 7.81567 13.5482 7.84881 13.6069 7.88708C13.6732 7.93041 13.6962 8.00189 13.566 7.85137C13.589 7.87945 13.6221 7.9024 13.6477 7.92791C13.936 8.20599 14.4488 8.23663 14.7294 7.92791C15.0074 7.62682 15.0356 7.14208 14.7294 6.84619C13.936 6.07574 12.668 6.09612 11.8771 6.86151C12.2368 6.86151 12.5991 6.86151 12.9589 6.86151C12.6757 6.5783 12.1552 6.55792 11.8771 6.86151C11.5965 7.16766 11.5735 7.64221 11.8771 7.94323C11.8771 7.58349 11.8771 7.22119 11.8771 6.86151C11.4409 7.32324 11.2419 7.92791 11.326 8.55554C11.4077 9.16528 11.7853 9.73419 12.3313 10.0276C12.8798 10.321 13.5201 10.3516 14.0916 10.1117C14.658 9.87194 15.1044 9.36682 15.2499 8.76727C15.4183 8.07586 15.2192 7.35644 14.7269 6.84875C14.4462 6.56048 13.9206 6.54772 13.6451 6.84875C13.3619 7.1549 13.3492 7.61926 13.6477 7.92791Z"/>
</g>
<defs>
<clipPath id="clip0">
<rect width="21.5276" height="11.6219" fill="white" transform="translate(0.0581055)"/>
</clipPath>
</defs>
</svg>
