<svg width="19" height="14" viewBox="0 0 19 14" fill="black" xmlns="http://www.w3.org/2000/svg">
    <path fill-rule="evenodd" clip-rule="evenodd" d="M18.5 12.3946C18.5 12.8351 18.1429 13.1923 17.7024 13.1923H8.13082C7.6903 13.1923 7.33319 12.8351 7.33319 12.3946C7.33319 9.75152 9.47586 7.60885 12.119 7.60885H13.7142C16.3573 7.60885 18.5 9.75152 18.5 12.3946ZM12.9166 0.430176C11.1545 0.430176 9.72608 1.85862 9.72608 3.6207C9.72608 5.38277 11.1545 6.81122 12.9166 6.81122C14.6787 6.81122 16.1071 5.38277 16.1071 3.6207C16.1071 1.85862 14.6787 0.430176 12.9166 0.430176ZM5.73793 0.430176C3.97585 0.430176 2.54741 1.85862 2.54741 3.6207C2.54741 5.38277 3.97585 6.81122 5.73793 6.81122C7.50001 6.81122 8.92845 5.38277 8.92845 3.6207C8.92845 1.85862 7.50001 0.430176 5.73793 0.430176ZM5.73793 12.3946C5.73553 10.7023 6.41053 9.07945 7.61236 7.88802C7.12544 7.70418 6.60936 7.60961 6.08889 7.60885H5.38697C2.93951 7.61324 0.956539 9.59621 0.952149 12.0437L0.952148 12.3946C0.952148 12.8351 1.30926 13.1923 1.74978 13.1923H5.8815C5.78864 12.9365 5.74009 12.6667 5.73793 12.3946L5.73793 12.3946Z"/>
</svg>
