<svg width="23" height="21" viewBox="0 0 23 21" fill="none" xmlns="http://www.w3.org/2000/svg">
<path fill-rule="evenodd" clip-rule="evenodd" d="M6.1165 0.200195C4.54237 0.200195 2.96828 0.816772 1.78053 2.05981C-0.595041 4.54578 -0.591977 8.52954 1.78053 11.0172L10.8483 20.5269C11.0152 20.7019 11.2464 20.8009 11.4882 20.8009C11.7299 20.8009 11.9612 20.7019 12.128 20.5269C15.1529 17.3613 18.1801 14.192 21.205 11.0264C23.5805 8.54028 23.5805 4.55505 21.205 2.06897C18.8295 -0.417114 14.9086 -0.417114 12.533 2.06897L11.4928 3.14612L10.4525 2.05981C9.26472 0.816772 7.69064 0.200195 6.1165 0.200195ZM6.1165 1.93091C7.21535 1.93091 8.32165 2.38379 9.18209 3.28418L10.8576 5.0426C11.0244 5.21753 11.2556 5.31653 11.4974 5.31653C11.7391 5.31653 11.9704 5.21753 12.1372 5.0426L13.8035 3.29333C15.5243 1.49243 18.2045 1.49243 19.9254 3.29333C21.6462 5.09424 21.6462 8.01025 19.9254 9.81116C17.1149 12.7524 14.3032 15.6892 11.4928 18.6305L3.06014 9.802C1.34021 7.99854 1.33929 5.08508 3.06014 3.28418C3.92055 2.38379 5.01766 1.93091 6.1165 1.93091Z" fill="#D90B4C"/>
</svg>
