<svg width="27" height="27" viewBox="0 0 27 27" fill="none" xmlns="http://www.w3.org/2000/svg">
<path fill-rule="evenodd" clip-rule="evenodd" d="M13.2714 2.92795C16.6704 2.92795 17.073 2.94092 18.4153 3.00216C19.2225 3.01174 20.0221 3.16001 20.7791 3.44049C21.8893 3.86875 22.7668 4.74625 23.195 5.85645C23.4755 6.61343 23.6238 7.41299 23.6334 8.22021C23.6946 9.56256 23.7076 9.96516 23.7076 13.3642C23.7076 16.7631 23.6946 17.1658 23.6334 18.5081C23.6238 19.3153 23.4755 20.1149 23.195 20.8719C22.7668 21.9821 21.8893 22.8596 20.7791 23.2878C20.0221 23.5683 19.2225 23.7166 18.4153 23.7262C17.0732 23.7874 16.6706 23.8004 13.2714 23.8004C9.87214 23.8004 9.46956 23.7874 8.12745 23.7262C7.32023 23.7166 6.52066 23.5683 5.76368 23.2878C4.65349 22.8596 3.77599 21.9821 3.34773 20.8719C3.06725 20.1149 2.91898 19.3153 2.9094 18.5081C2.84816 17.1658 2.83519 16.7632 2.83519 13.3642C2.83519 9.96518 2.84816 9.56254 2.9094 8.22023C2.91898 7.41301 3.06725 6.61344 3.34773 5.85645C3.77598 4.74626 4.65347 3.86875 5.76366 3.44049C6.52064 3.16001 7.3202 3.01174 8.12741 3.00216C9.46975 2.94092 9.87235 2.92795 13.2713 2.92795M13.2714 0.634277C9.81416 0.634277 9.38064 0.648917 8.02287 0.710868C6.96681 0.732028 5.92198 0.932106 4.93281 1.3026C3.22289 1.96392 1.87114 3.31568 1.20982 5.0256C0.839338 6.01477 0.639263 7.05961 0.618106 8.11567C0.556144 9.47345 0.541504 9.90696 0.541504 13.3642C0.541504 16.8214 0.556144 17.2549 0.618095 18.6127C0.639256 19.6688 0.839333 20.7136 1.20982 21.7028C1.87115 23.4127 3.22289 24.7645 4.93281 25.4258C5.92198 25.7963 6.96681 25.9964 8.02287 26.0175C9.38064 26.0795 9.81416 26.0941 13.2714 26.0941C16.7286 26.0941 17.1621 26.0795 18.5199 26.0175C19.5759 25.9964 20.6208 25.7963 21.6099 25.4258C23.3199 24.7645 24.6716 23.4127 25.3329 21.7028C25.7034 20.7136 25.9035 19.6688 25.9247 18.6127C25.9866 17.2549 26.0013 16.8214 26.0013 13.3642C26.0013 9.90696 25.9866 9.47345 25.9247 8.11567C25.9035 7.05961 25.7034 6.01477 25.3329 5.0256C24.6716 3.31568 23.3199 1.96392 21.6099 1.3026C20.6208 0.932113 19.5759 0.732037 18.5199 0.71088C17.1621 0.648917 16.7286 0.634277 13.2714 0.634277ZM13.2714 6.82721C9.66112 6.82721 6.73442 9.75392 6.73442 13.3642C6.73442 16.9745 9.66112 19.9012 13.2714 19.9012C16.8816 19.9012 19.8083 16.9745 19.8083 13.3642C19.8083 9.75392 16.8816 6.82721 13.2714 6.82721ZM13.2714 17.6075C10.9279 17.6075 9.02809 15.7077 9.02809 13.3642C9.02809 11.0207 10.9279 9.12089 13.2714 9.12089C15.6149 9.12089 17.5147 11.0207 17.5147 13.3642C17.5147 15.7077 15.6149 17.6075 13.2714 17.6075ZM20.0666 5.04134C19.223 5.04134 18.539 5.72527 18.539 6.56893C18.539 7.4126 19.223 8.09652 20.0666 8.09653C20.9103 8.09653 21.5942 7.4126 21.5942 6.56893C21.5942 5.72527 20.9103 5.04134 20.0666 5.04134V5.04134Z" fill="white"/>
</svg>
