<svg width="25" height="24" viewBox="0 0 25 24" fill="none" xmlns="http://www.w3.org/2000/svg">
<g clip-path="url(#clip0)">
<path d="M15.9843 11.7688C16.3402 11.9265 16.7253 12.0072 17.1146 12.0057C18.7628 12.0057 20.1015 10.6744 20.1105 9.02616C20.1106 8.87365 20.0969 8.72143 20.0696 8.57138C20.0089 8.21259 19.8844 7.86759 19.7019 7.55278C19.8381 7.55278 19.9743 7.53644 20.105 7.53644C20.2506 7.5354 20.396 7.54268 20.5408 7.55822C20.5597 7.55526 20.579 7.55526 20.598 7.55823C20.7232 7.57184 20.8404 7.58818 20.9575 7.6127C20.9792 7.61007 21.0011 7.61007 21.0228 7.6127L21.1645 7.6481C23.1717 5.94045 24.5852 4.50787 24.5852 3.78613C24.5852 1.54739 23.0954 0.0576172 20.8567 0.0576172C18.618 0.0576172 9.64936 13.4955 6.67254 16.4805L5.93174 17.2295L4.43652 18.7193L3.693 19.4682L2.19778 20.958C1.45426 20.958 0.708008 20.958 0.708008 21.707C0.708008 22.4559 2.19778 23.943 2.94403 23.943C3.69028 23.943 3.693 23.1967 3.693 22.4532L5.93174 20.2145L8.17049 17.9785C9.41786 16.7284 12.4737 14.4379 15.6193 12.0466V12.0058C15.6139 11.915 15.6139 11.8241 15.6193 11.7334C15.6165 11.6899 15.6165 11.6462 15.6193 11.6027C15.726 11.6669 15.8381 11.7216 15.9543 11.7661C15.9543 11.7661 15.9789 11.777 15.9843 11.7688Z" fill="#D90B4C"/>
<path d="M21.6331 16.2162C22.8792 15.7647 23.8582 14.7796 24.3021 13.5308C22.8805 13.6635 21.7571 14.7938 21.6331 16.2162V16.2162Z" fill="#D90B4C"/>
<path d="M21.3962 7.72949C21.5239 8.14975 21.5881 8.58669 21.5869 9.02589C21.5878 10.4432 20.9169 11.777 19.7785 12.6212C18.6401 13.4653 17.1689 13.7199 15.813 13.3073C16.3827 15.1968 18.1236 16.4895 20.0971 16.4884C20.0942 15.3 20.5645 14.1593 21.404 13.3182C22.2436 12.477 23.3834 12.0047 24.5719 12.0054C24.571 10.0361 23.2812 8.29951 21.3962 7.72949H21.3962Z" fill="#D90B4C"/>
</g>
<defs>
<clipPath id="clip0">
<rect width="23.8772" height="23.8854" fill="white" transform="translate(0.708008 0.0576172)"/>
</clipPath>
</defs>
</svg>
