<svg width="25" height="25" viewBox="0 0 25 25" fill="none" xmlns="http://www.w3.org/2000/svg">
<path fill-rule="evenodd" clip-rule="evenodd" d="M12.6955 0.96875C6.73334 0.96875 1.66665 5.39312 0.829325 11.2493C-0.189888 18.3817 5.33829 24.9428 12.6955 24.9428C16.7306 24.9428 20.5979 22.6751 22.2625 20.1782V20.1744C23.9023 18.0065 24.6863 15.4302 24.6863 12.9595V12.8954C24.5814 6.18426 19.2037 0.96875 12.6955 0.96875ZM12.9787 4.87257L16.6182 2.22976C18.8344 3.04524 20.7297 4.52523 22.0624 6.43182L20.4125 10.683L16.6107 11.7288L12.9787 9.08973V4.87257H12.9787ZM8.77662 2.22976L12.4124 4.87257V9.0935L8.7804 11.7288L4.95588 10.6792L3.30224 6.46957C4.63875 4.5441 6.54157 3.04902 8.77662 2.22976ZM3.41927 19.6119C2.27154 18.0186 1.52401 16.1158 1.3239 14.0544L4.77466 11.2191L8.53877 12.2498L9.96589 16.6331L8.05174 19.4722L3.41927 19.6119ZM15.3723 24.0594C14.5153 24.2632 13.6167 24.3765 12.6955 24.3765C11.729 24.3765 10.7889 24.2557 9.89038 24.0291L8.42173 19.9328L10.4265 16.9615H14.9608L16.9278 19.8686L15.3723 24.0594ZM21.8963 19.7176L17.3809 19.5326L15.4252 16.6368L16.8523 12.2498L20.6353 11.2115L24.0709 14.0091C23.8746 16.1309 23.0969 18.0904 21.8963 19.7176Z" fill="#D90B4C"/>
</svg>
