<svg width="25" height="24" viewBox="0 0 25 24" fill="none" xmlns="http://www.w3.org/2000/svg">
<path fill-rule="evenodd" clip-rule="evenodd" d="M13.2831 1.10837C13.2831 0.755271 13.3002 0.40502 13.3344 0.0576172C15.9705 0.202758 18.4833 1.22169 20.4761 2.95359L15.7092 7.71187C14.141 5.86922 13.2809 3.528 13.2831 1.10837L13.2831 1.10837ZM1.78464 10.8983C4.66228 10.8924 7.44374 11.9339 9.60975 13.8284L11.455 11.9832L3.62986 4.16665C1.97575 6.06545 0.967639 8.44065 0.750972 10.9495C1.09268 10.9154 1.44293 10.8983 1.78464 10.8983ZM4.84292 2.95359L12.6595 10.7787L14.5047 8.93348C12.6102 6.76747 11.5686 3.98601 11.5746 1.10837C11.5746 0.766661 11.5746 0.416411 11.6258 0.074703C9.11693 0.291368 6.74172 1.29948 4.84292 2.95359H4.84292ZM23.5343 11.3596C23.8817 11.3596 24.232 11.3425 24.5851 11.3083C24.44 8.67217 23.421 6.1594 21.6891 4.16665L16.9308 8.93348C18.7735 10.5017 21.1147 11.3618 23.5343 11.3596L23.5343 11.3596ZM23.5343 13.0681C20.6567 13.0741 17.8752 12.0325 15.7092 10.138L13.864 11.9832L21.6891 19.7998C23.3432 17.901 24.3513 15.5258 24.568 13.0169C24.2263 13.0511 23.876 13.0681 23.5343 13.0681ZM1.78464 12.6068C1.43154 12.6068 1.08129 12.6239 0.733887 12.6581C0.879026 15.2943 1.89796 17.807 3.62986 19.7998L8.38814 15.033C6.54549 13.4648 4.20427 12.6046 1.78464 12.6068H1.78464ZM20.4761 21.0128L12.6595 13.1877L10.8143 15.033C12.7088 17.199 13.7503 19.9804 13.7444 22.8581C13.7444 23.1998 13.7444 23.55 13.6932 23.8917C16.2021 23.6751 18.5773 22.667 20.4761 21.0128V21.0128ZM9.60975 16.2546L4.84292 21.0128C6.83106 22.7571 9.3443 23.7883 11.9846 23.943C12.0188 23.5899 12.0359 23.2396 12.0359 22.8922C12.0463 20.4609 11.1856 18.1062 9.60975 16.2546V16.2546Z" fill="#D90B4C"/>
</svg>
