<svg width="26" height="22" viewBox="0 0 26 22" fill="none" xmlns="http://www.w3.org/2000/svg">
<rect width="26" height="22" fill="#D90B4C"/>
<path d="M2.58318 3.706L2.28618 2.698H2.24118L2.16018 3.706L1.46718 7H0.360176L1.71018 0.655H2.52018L4.06818 4.021L4.34718 5.002H4.40118L4.46418 4.021L5.17518 0.7H6.28218L4.93218 7.045H4.12218L2.58318 3.706ZM7.36991 0.7H8.53991H10.9159L10.6819 1.798H8.30591L7.99091 3.265H10.1599L9.91691 4.363H7.76591L7.43291 5.902H9.85391L9.62891 7H7.20791H6.03791L7.36991 0.7ZM12.6253 4.21L12.4993 5.326H12.5443L12.8953 4.192L14.6773 0.7H15.4693L15.7303 4.21L15.6133 5.326H15.6583L16.0183 4.192L17.4943 0.7H18.7543L15.7573 7.045H14.9383L14.6053 3.544L14.6773 2.581H14.6233L14.2813 3.553L12.4903 7.045H11.6713L11.3653 0.7H12.5983L12.6253 4.21Z" fill="white" transform="translate(4,4)"/>
</svg>
