<svg width="27" height="24" viewBox="0 0 27 24" fill="none" xmlns="http://www.w3.org/2000/svg">
<path fill-rule="evenodd" clip-rule="evenodd" d="M25.9748 15.6769C25.9748 15.6769 25.8298 15.5319 25.8008 14.4877C25.7718 13.5016 25.8878 13.2116 25.9748 11.9644C25.9748 11.8774 25.9748 11.7904 25.9458 11.7323C26.0038 10.1081 25.8298 8.45489 25.3947 7.0917C24.8147 5.23544 23.7125 3.61121 22.1463 2.45105C20.145 0.971843 17.5346 0.130725 15.0403 0.0727171C9.12347 -0.217324 4.04776 3.69822 2.77158 9.47003C4.39581 9.78907 6.02003 10.1081 7.64426 10.4272C8.02131 10.5142 8.36936 10.6302 8.68841 10.7752L7.84729 16.083L1.35038 16.663C0.973329 16.692 0.683288 17.0401 0.741296 17.4171C0.799305 17.7942 1.08935 18.0552 1.4664 18.0552C1.4954 18.0552 1.4954 18.0552 1.52441 18.0552H1.55341L1.87245 19.4184C1.61142 19.5054 1.40839 19.7665 1.40839 20.0565C1.40839 20.4336 1.72743 20.7526 2.10449 20.7526H2.1915L2.82959 23.392C2.8876 23.595 3.00361 23.74 3.17764 23.856C3.26465 23.914 3.38067 23.9431 3.49668 23.9431C3.58369 23.9431 3.67071 23.914 3.75772 23.885C5.96203 22.9859 7.2382 21.7968 7.9343 20.7816H11.4438C12.3429 22.2318 14.1702 22.4638 15.8234 22.2028C17.7087 21.9128 19.5939 21.1877 21.1311 20.0855C21.6242 19.7375 22.2043 19.3024 22.7264 18.8383C23.7995 18.0842 25.1337 17.2431 25.9458 17.2431C26.961 17.1851 26.932 15.6769 25.9748 15.6769ZM3.98975 22.2318L3.6417 20.7236H6.16505C5.64298 21.2457 4.94688 21.7677 3.98975 22.2318ZM7.49924 18.4903C7.49924 18.5193 7.44123 18.8673 7.1802 19.3604H3.29365L2.9456 17.9392L7.64426 17.5042L7.49924 18.4903ZM10.9797 19.3604H8.68841C8.83343 18.9834 8.86243 18.7513 8.86243 18.7223L9.06546 17.3881L11.0087 17.2141C10.9217 17.9102 10.8637 18.6353 10.9797 19.3604ZM9.29749 15.9669L9.96459 11.7323C10.7187 12.6315 11.0377 13.8496 11.1247 15.1838C11.1247 15.3869 11.1247 15.5899 11.1247 15.7929L9.29749 15.9669ZM14.6342 20.6946C12.3429 20.6946 12.3429 17.1271 14.6342 17.1271C16.9256 17.1271 16.9256 20.6946 14.6342 20.6946ZM22.2913 7.14971C22.1753 6.97568 22.0593 6.80166 21.9143 6.62763L21.5372 6.13456C21.2472 5.84452 20.9861 5.52548 20.6671 5.26444C20.058 4.71337 19.4199 4.2493 18.6948 3.90125C17.2446 3.20515 15.5914 2.91511 13.9091 2.91511C12.1979 2.91511 10.4577 3.14715 8.6884 3.5242C9.44251 3.00213 10.2546 2.59607 11.1247 2.24802C11.9949 1.92898 12.894 1.69694 13.8221 1.55192C15.6784 1.29089 17.6797 1.46491 19.4779 2.33503C20.377 2.7701 21.1601 3.37918 21.8562 4.07528C22.2043 4.42333 22.4943 4.80038 22.7844 5.20644C23.0454 5.61249 23.3064 6.01855 23.5095 6.45361C24.3506 8.16485 24.6986 10.0211 24.6986 11.8194C23.9735 10.1371 23.2484 8.5419 22.2913 7.14971Z" fill="#D90B4C"/>
</svg>
