<svg width="183" height="39" viewBox="0 0 183 39" fill="none" xmlns="http://www.w3.org/2000/svg">
<path d="M71.6774 12.661C72.797 13.3023 73.7445 14.1842 74.3473 15.3867C75.0363 16.5892 75.3808 18.0323 75.3808 19.6356C75.3808 21.239 75.0363 22.602 74.2612 23.8044C73.5722 25.0069 72.5386 25.8889 71.2466 26.4499C69.9548 27.0914 68.4044 27.4121 66.7681 27.4121C65.8207 27.4121 64.9593 27.2516 64.0981 26.9311C63.2367 26.6906 62.4616 26.2094 61.8587 25.6484V33.9859H56.8633V12.0196H61.1696L61.6004 13.7833C63.4951 12.3403 65.5622 11.6188 67.7154 11.6188C69.1795 11.6188 70.5576 11.9394 71.6774 12.661ZM68.9213 22.602C69.7825 21.8805 70.2131 20.9183 70.2131 19.7158C70.2131 18.5133 69.7825 17.5513 69.0074 16.7496C68.2323 15.9479 67.1987 15.6272 66.0791 15.6272C65.1316 15.6272 64.2703 15.7876 63.5812 16.1884C62.8922 16.5091 62.3755 17.0703 61.9449 17.7918V21.3993C62.2032 22.121 62.72 22.682 63.323 23.083C64.012 23.4837 64.7871 23.7242 65.7346 23.7242C67.0264 23.7242 68.0599 23.3235 68.9213 22.602Z" fill="white"/>
<path d="M78.3071 15.4651C79.0824 14.3428 80.1158 13.3808 81.4938 12.7394C82.8719 12.0981 84.4223 11.6972 86.1449 11.6972C87.8675 11.6972 89.4177 12.0179 90.7957 12.7394C92.0877 13.3808 93.1213 14.3428 93.8964 15.5453C94.6715 16.7478 95.016 18.0306 95.016 19.5538C95.016 21.077 94.6715 22.3597 93.8964 23.5622C93.1213 24.7647 92.1738 25.7267 90.7957 26.3681C89.5038 27.0094 87.8675 27.4103 86.1449 27.4103C84.4223 27.4103 82.8719 27.0896 81.4938 26.4483C80.1158 25.8069 79.0824 24.9251 78.3071 23.7225C77.6181 22.52 77.1875 21.157 77.1875 19.5538C77.1875 18.0306 77.6181 16.6677 78.3071 15.4651ZM83.3888 22.4398C84.0778 23.2415 85.0253 23.5622 86.1449 23.5622C87.2645 23.5622 88.212 23.1614 88.901 22.4398C89.59 21.7183 89.9345 20.676 89.9345 19.5538C89.9345 18.3513 89.59 17.3892 88.901 16.6677C88.1257 15.866 87.2645 15.4651 86.0588 15.4651C84.939 15.4651 84.0778 15.866 83.3027 16.5875C82.6137 17.3892 82.2691 18.3513 82.2691 19.5538C82.2691 20.676 82.6137 21.6382 83.3888 22.4398Z" fill="white"/>
<path d="M103.113 0.634888V27.0105H98.1172V0.634888H103.113Z" fill="white"/>
<path d="M123.611 12.4194L113.448 34.065H108.625L112.414 26.2887L105.18 12.4194H110.864L114.998 21.0776L119.132 12.4194H123.611Z" fill="white"/>
<path d="M142.731 12.4187V27.0094C142.731 28.3723 142.301 29.655 141.439 30.7775C140.578 31.8997 139.458 32.7817 137.994 33.4229C136.53 34.0644 134.98 34.3849 133.257 34.3849C131.965 34.3849 130.846 34.2247 129.898 33.9842C128.951 33.6634 128.176 33.3427 127.573 33.0222C126.884 32.6212 126.195 32.1402 125.42 31.499L128.348 28.2921C129.037 28.9335 129.812 29.4145 130.501 29.7352C131.19 30.0558 132.138 30.2963 133.171 30.2963C134.463 30.2963 135.497 29.9757 136.358 29.4145C137.219 28.8533 137.65 27.9715 137.65 26.9293V24.8449C137.133 25.5664 136.444 26.2078 135.41 26.6888C134.377 27.1698 133.171 27.4103 131.793 27.4103C130.415 27.4103 129.037 27.0896 127.831 26.3681C126.625 25.7267 125.678 24.7647 124.903 23.5622C124.214 22.3597 123.783 21.077 123.783 19.634C123.783 18.1908 124.128 16.828 124.903 15.6255C125.678 14.423 126.625 13.4609 127.917 12.7394C129.123 12.0179 130.415 11.6972 131.793 11.6972C133.085 11.6972 134.205 11.8575 135.238 12.1782C136.272 12.4989 137.047 12.9799 137.564 13.5411L138.08 12.4187H142.731ZM137.65 21.3977V17.7901C137.305 17.0685 136.788 16.5073 136.013 16.1065C135.238 15.7056 134.377 15.4651 133.343 15.4651C132.138 15.4651 131.104 15.866 130.243 16.5875C129.382 17.309 128.951 18.2711 128.951 19.4736C128.951 20.596 129.382 21.6382 130.243 22.4398C131.104 23.2415 132.138 23.6424 133.343 23.6424C135.324 23.5622 136.789 22.8407 137.65 21.3977Z" fill="white"/>
<path d="M146.866 15.4669C147.641 14.2644 148.674 13.3825 150.052 12.661C151.43 12.0196 152.981 11.6188 154.703 11.6188C156.426 11.6188 157.976 11.9394 159.354 12.661C160.646 13.3023 161.68 14.2644 162.455 15.4669C163.144 16.6694 163.575 17.9521 163.575 19.4753C163.575 20.9985 163.23 22.2812 162.455 23.4837C161.766 24.6862 160.732 25.6484 159.354 26.2896C158.062 26.9311 156.426 27.3319 154.703 27.3319C152.981 27.3319 151.43 27.0111 150.052 26.3699C148.674 25.7284 147.641 24.8467 146.866 23.6442C146.091 22.4415 145.746 21.0787 145.746 19.3951C145.746 18.0323 146.091 16.6694 146.866 15.4669ZM151.861 22.4415C152.55 23.2432 153.498 23.5639 154.617 23.5639C155.737 23.5639 156.684 23.163 157.373 22.4415C158.062 21.72 158.407 20.6778 158.407 19.5555C158.407 18.3529 158.062 17.3909 157.373 16.6694C156.684 15.9479 155.737 15.547 154.617 15.547C153.498 15.547 152.636 15.9479 151.861 16.6694C151.086 17.3909 150.741 18.4331 150.741 19.5555C150.828 20.6778 151.172 21.6398 151.861 22.4415Z" fill="white"/>
<path d="M181.232 12.8997C182.266 13.7014 182.696 14.7436 182.781 16.0263V27.0094H177.7V17.7901C177.614 16.347 176.839 15.6255 175.375 15.6255C174.255 15.6255 173.308 16.1065 172.619 17.1487C171.93 18.1908 171.585 19.4736 171.585 20.9968V27.0094H166.59V12.4187H171.155L171.499 14.7436C172.102 13.7816 172.877 13.0601 173.911 12.4989C174.944 11.9377 176.15 11.6972 177.528 11.6972C178.992 11.6972 180.284 12.0981 181.232 12.8997Z" fill="white"/>
<path d="M35.5018 12.1801C34.6404 11.6991 33.5208 11.6991 32.5735 12.1801L25.8554 15.8679L21.2906 18.273L14.5727 21.9607C13.7114 22.4417 12.5917 22.4417 11.6443 21.9607L6.30436 19.0745C5.44308 18.5935 4.84019 17.7118 4.84019 16.7497V11.0577C4.84019 10.0957 5.35696 9.21384 6.30436 8.73283L11.5582 5.92693C12.4195 5.44592 13.5391 5.44592 14.4865 5.92693L19.7404 8.73283C20.6016 9.21384 21.2045 10.0957 21.2045 11.0577V14.7455L25.7693 12.2603V8.57251C25.7693 7.61046 25.2526 6.72861 24.3052 6.2476L14.5727 0.956463C13.7114 0.47545 12.5917 0.47545 11.6443 0.956463L1.73957 6.2476C0.792159 6.72861 0.275391 7.61046 0.275391 8.57251V19.235C0.275391 20.197 0.792159 21.0789 1.73957 21.5599L11.6443 26.851C12.5056 27.332 13.6253 27.332 14.5727 26.851L21.2906 23.2434L25.8554 20.7582L32.5735 17.1506C33.4347 16.6695 34.5543 16.6695 35.5018 17.1506L40.7556 19.9565C41.6168 20.4375 42.2198 21.3194 42.2198 22.2814V27.9733C42.2198 28.9354 41.7031 29.8172 40.7556 30.2982L35.5018 33.1843C34.6404 33.6653 33.5208 33.6653 32.5735 33.1843L27.3197 30.3784C26.4583 29.8974 25.8554 29.0155 25.8554 28.0535V24.3658L21.2906 26.851V30.5387C21.2906 31.5007 21.8075 32.3826 22.7548 32.8636L32.6596 38.1547C33.5208 38.6357 34.6404 38.6357 35.5879 38.1547L45.4927 32.8636C46.3539 32.3826 46.9569 31.5007 46.9569 30.5387V19.8762C46.9569 18.9142 46.44 18.0325 45.4927 17.5515L35.5018 12.1801Z" fill="white"/>
</svg>
