<svg width="20" height="19" viewBox="0 0 20 19" fill="black" xmlns="http://www.w3.org/2000/svg">
<path fill-rule="evenodd" clip-rule="evenodd" d="M3.72052 0.438272L1.04415 3.11465C0.918901 3.24092 0.849081 3.41186 0.850109 3.5897L0.850109 8.94245C0.849081 9.12029 0.9189 9.29123 1.04415 9.4175L9.94309 18.3098C10.37 18.7388 10.9503 18.98 11.5556 18.98C12.1609 18.98 12.7412 18.7388 13.1681 18.3098L18.9156 12.5622C19.3447 12.1353 19.5859 11.555 19.5859 10.9497C19.5859 10.3445 19.3447 9.76416 18.9156 9.33721L10.0234 0.438272C9.89711 0.313026 9.72617 0.243204 9.54832 0.244234H4.19558C4.01773 0.243204 3.84679 0.313026 3.72052 0.438272ZM8.21014 5.59698C8.21014 6.70557 7.31145 7.60426 6.20286 7.60426C5.09427 7.60426 4.19558 6.70557 4.19558 5.59698C4.19558 4.48839 5.09427 3.5897 6.20286 3.5897C7.31145 3.5897 8.21014 4.48839 8.21014 5.59698V5.59698Z"/>
</svg>
