<svg width="17" height="16" viewBox="0 0 17 16" fill="#0E0E0E" xmlns="http://www.w3.org/2000/svg">
<path d="M3.9015 15.5915C3.81542 15.5915 3.731 15.5647 3.65961 15.5124C3.53848 15.4245 3.47424 15.2771 3.49333 15.1281L4.11843 10.1983L0.714311 6.57703C0.611167 6.46728 0.576847 6.31072 0.623464 6.16794C0.66953 6.02515 0.789559 5.91907 0.937484 5.89099L5.81994 4.96178L8.21153 0.605315C8.35652 0.342499 8.78799 0.342499 8.9328 0.605315L11.3244 4.96178L16.207 5.89099C16.3551 5.91889 16.4752 6.02497 16.5216 6.16775C16.5678 6.31054 16.5332 6.46727 16.4307 6.57684L13.0268 10.1983L13.6512 15.1281C13.6706 15.2771 13.6064 15.4245 13.4849 15.5124C13.3638 15.6008 13.2034 15.6164 13.0681 15.5518L8.57235 13.4337L4.07659 15.5518C4.02116 15.5783 3.96096 15.5915 3.9015 15.5915Z"/>
</svg>
