<svg width="19" height="16" viewBox="0 0 19 16" fill="black" xmlns="http://www.w3.org/2000/svg">
    <path fill-rule="evenodd" clip-rule="evenodd" d="M15.8343 11.4273L14.3256 9.91795L14.2999 9.89097C14.2789 9.86597 14.2729 9.86005 14.2539 9.83373C14.0019 9.47842 14.2177 8.8823 14.6802 8.804C14.8862 8.76913 15.102 8.84151 15.256 8.98757L17.8885 11.6195C18.0168 11.755 18.0852 11.9327 18.08 12.1222C18.0668 12.2827 17.9997 12.4327 17.8885 12.5505L15.256 15.183C15.2323 15.2054 15.227 15.2113 15.2014 15.2324C14.9151 15.4601 14.4335 15.3864 14.2335 15.0679C14.0762 14.8179 14.119 14.4705 14.3256 14.252L15.8343 12.7433H1.62868C1.38194 12.7157 1.14442 12.5966 1.03585 12.3709C0.906888 12.1024 0.985845 11.7557 1.21811 11.5708C1.33325 11.4787 1.47998 11.4438 1.62868 11.4273H15.8343ZM3.21769 3.52969H17.4233C17.6694 3.55733 17.9076 3.67642 18.0162 3.9021C18.0734 4.02185 18.0668 4.0587 18.0813 4.18766C18.076 4.23635 18.0701 4.2857 18.0648 4.33439C18.032 4.42717 17.9991 4.52191 17.9379 4.59824C17.8451 4.7147 17.7128 4.79695 17.5694 4.82919C17.522 4.84037 17.472 4.84037 17.4233 4.84564H3.21769L4.72642 6.35503C4.72642 6.35503 4.92513 6.61098 4.91789 6.85706C4.91526 6.88996 4.91526 6.89785 4.91 6.93075C4.84815 7.29395 4.43757 7.55583 4.07898 7.45253C4.00792 7.43213 3.94015 7.39989 3.88027 7.35712C3.85 7.33541 3.82237 7.31106 3.79539 7.2854L1.1635 4.65351C1.14047 4.62916 1.13455 4.6239 1.11415 4.59824C0.930577 4.36795 0.926629 4.01198 1.11415 3.77775C1.13455 3.75209 1.14047 3.74616 1.1635 3.72248L3.79539 1.08993C3.81974 1.06756 3.825 1.06163 3.85066 1.04058C4.19873 0.763573 4.82644 0.955701 4.91 1.44523C4.94487 1.65118 4.87184 1.86634 4.72642 2.02096L3.21769 3.52969H3.21769Z"/>
</svg>
