<svg width="19" height="21" viewBox="0 0 19 21" fill="none" xmlns="http://www.w3.org/2000/svg">
<path d="M12.6667 7.24138C11.2054 7.24138 9.97182 8.23755 9.58409 9.59483H0V11.4052H9.58409C9.97182 12.7624 11.2054 13.7586 12.6667 13.7586C14.1279 13.7586 15.3615 12.7624 15.7492 11.4052H19V9.59483H15.749C15.3615 8.23755 14.1277 7.24138 12.6667 7.24138ZM12.6667 11.9483C11.8795 11.9483 11.2394 11.2987 11.2394 10.5C11.2394 9.70128 11.8795 9.05172 12.6667 9.05172C13.4538 9.05172 14.0939 9.70128 14.0939 10.5C14.0939 11.2987 13.4535 11.9483 12.6667 11.9483ZM6.33333 14.4828C4.87209 14.4828 3.63849 15.4789 3.25075 16.8362H0V18.6466H3.25075C3.63849 20.0038 4.87209 21 6.33333 21C7.79458 21 9.02818 20.0038 9.41591 18.6466H19V16.8362H9.41567C9.02818 15.4789 7.79434 14.4828 6.33333 14.4828ZM6.33333 19.1897C5.54622 19.1897 4.9061 18.5401 4.9061 17.7414C4.9061 16.9427 5.54622 16.2931 6.33333 16.2931C7.12045 16.2931 7.76056 16.9427 7.76056 17.7414C7.76056 18.5401 7.12021 19.1897 6.33333 19.1897ZM9.41567 2.35345C9.02794 0.996172 7.79434 0 6.3331 0C4.87185 0 3.63825 0.996172 3.25052 2.35345H0V4.16379H3.25075C3.63849 5.52107 4.87209 6.51724 6.33333 6.51724C7.79458 6.51724 9.02818 5.52107 9.41591 4.16379H19V2.35345H9.41567ZM6.33333 4.7069C5.54622 4.7069 4.9061 4.05734 4.9061 3.25862C4.9061 2.4599 5.54622 1.81034 6.33333 1.81034C7.12045 1.81034 7.76056 2.4599 7.76056 3.25862C7.76056 4.05734 7.12021 4.7069 6.33333 4.7069Z" fill="white"/>
</svg>
