<svg width="33" height="27" viewBox="0 0 33 27" fill="none" xmlns="http://www.w3.org/2000/svg">
<path d="M28.8944 6.97242C28.9135 7.24864 28.9135 7.52486 28.9135 7.80363C28.9135 16.2977 22.4472 26.0941 10.6231 26.0941V26.089C7.13025 26.0941 3.70995 25.0935 0.769531 23.2071C1.27742 23.2682 1.78786 23.2987 2.29957 23.3C5.19416 23.3026 8.00602 22.3313 10.2832 20.5429C7.53249 20.4907 5.12033 18.6972 4.27767 16.0788C5.24126 16.2647 6.23413 16.2265 7.1799 15.9681C4.18093 15.3622 2.02335 12.7272 2.02335 9.66717C2.02335 9.63916 2.02335 9.61243 2.02335 9.5857C2.91693 10.0834 3.91743 10.3596 4.94085 10.3902C2.11627 8.50246 1.2456 4.74483 2.9513 1.80696C6.21503 5.82299 11.0304 8.26442 16.1997 8.52282C15.6817 6.29014 16.3894 3.95054 18.0594 2.38104C20.6485 -0.0527592 24.7206 0.071986 27.1544 2.65981C28.594 2.37595 29.9739 1.84769 31.2366 1.09922C30.7567 2.58725 29.7524 3.85125 28.4107 4.65446C29.6849 4.50425 30.9298 4.16311 32.1022 3.64249C31.2391 4.93577 30.1521 6.06229 28.8944 6.97242Z" fill="white"/>
</svg>
