<svg width="23" height="23" viewBox="0 0 23 23" fill="none" xmlns="http://www.w3.org/2000/svg">
<path fill-rule="evenodd" clip-rule="evenodd" d="M11.6449 0.517655L13.0408 2.11112L15.1285 1.22555C15.4667 1.08306 15.8562 1.26653 15.9642 1.61575L16.6011 3.66942L18.8655 3.70948C19.2315 3.71529 19.5181 4.04034 19.4728 4.40392L19.2208 6.54139L21.2736 7.49941C21.5843 7.64497 21.7188 8.01498 21.5733 8.32597C21.2935 8.90574 20.7868 9.65308 20.444 10.2286L21.9307 11.9407C22.1708 12.2177 22.1173 12.6461 21.8185 12.8565L20.0621 14.0977L20.7238 16.2655C20.8308 16.6189 20.6085 16.9844 20.248 17.0556L18.1417 17.4752L17.8653 19.7233C17.8182 20.1083 17.4323 20.3572 17.0641 20.2444L15.0104 19.7787L13.8435 21.7192C13.6543 22.0351 13.2317 22.1183 12.9375 21.8987L11.2125 20.611L9.35671 21.9097C9.05275 22.1219 8.63903 22.0228 8.45769 21.7021L7.40822 19.8273L5.18147 20.2597C4.80291 20.3318 4.45522 20.0487 4.44207 19.6667L4.24942 17.5629L2.04254 17.0529C1.68141 16.97 1.47531 16.5948 1.59181 16.2459L2.28382 14.2093L0.474765 12.8449C0.16286 12.6098 0.143298 12.1508 0.428592 11.8887L1.8548 10.3469L0.756709 8.3648C0.576594 8.04098 0.718181 7.6358 1.05669 7.49024L3.02994 6.64291L2.83332 4.38467C2.79969 3.99508 3.13238 3.67278 3.51706 3.71009L5.61232 3.73853L6.3508 1.59586C6.47586 1.23198 6.8948 1.0696 7.2327 1.24727L9.15427 2.13406L10.6994 0.478211C10.9615 0.19658 11.4085 0.219216 11.6449 0.517663V0.517655ZM6.05358 11.3878C5.22734 10.5616 6.48382 9.30479 7.31037 10.131L10.0937 12.9146L14.9676 7.51196C15.7471 6.64566 17.0665 7.83242 16.2868 8.69933L10.8156 14.7637C10.4838 15.1717 9.87073 15.205 9.49767 14.8316L6.05358 11.3878Z" fill="#00B1FF"/>
</svg>
