<svg width="14" height="14" viewBox="0 0 14 14" fill="none" xmlns="http://www.w3.org/2000/svg">
<path fill-rule="evenodd" clip-rule="evenodd" d="M7.31433 0.153166L8.20857 1.17921L9.5459 0.608984C9.76256 0.517236 10.0121 0.635374 10.0813 0.860235L10.4893 2.18261L11.9399 2.20841C12.1743 2.21214 12.3579 2.42145 12.3289 2.65556L12.1675 4.03189L13.4825 4.64877C13.6815 4.7425 13.7677 4.98075 13.6745 5.18099C13.4952 5.55431 13.1706 6.03554 12.9511 6.4061L13.9035 7.50854C14.0572 7.68693 14.023 7.96279 13.8316 8.09826L12.7064 8.89747L13.1303 10.2933C13.1989 10.5209 13.0564 10.7562 12.8255 10.8021L11.4762 11.0722L11.2991 12.5198C11.269 12.7677 11.0217 12.928 10.7859 12.8553L9.47029 12.5555L8.72278 13.805C8.60152 14.0084 8.3308 14.0619 8.14236 13.9206L7.03735 13.0914L5.8485 13.9277C5.65378 14.0643 5.38875 14.0005 5.27258 13.794L4.60029 12.5868L3.17382 12.8652C2.93131 12.9117 2.70858 12.7293 2.70016 12.4834L2.57675 11.1287L1.16301 10.8003C0.931672 10.7469 0.799643 10.5054 0.874274 10.2807L1.31757 8.96934L0.158687 8.09078C-0.0411209 7.93936 -0.0536523 7.64382 0.129108 7.47507L1.04274 6.4823L0.339301 5.206C0.223919 4.99749 0.31462 4.73659 0.53147 4.64287L1.79554 4.09726L1.66958 2.64316C1.64804 2.3923 1.86117 2.18478 2.10759 2.2088L3.44983 2.22711L3.9229 0.847433C4.00302 0.613125 4.27139 0.50857 4.48785 0.62297L5.71881 1.19398L6.70864 0.127768C6.87652 -0.0535766 7.16291 -0.0390009 7.31433 0.153171V0.153166ZM3.73281 7.15262C3.20352 6.62059 4.00843 5.81134 4.53792 6.34336L6.3209 8.13574L9.44318 4.65691C9.9425 4.0991 10.7878 4.86326 10.2882 5.42148L6.78339 9.32639C6.57086 9.58905 6.17809 9.61051 5.93911 9.37009L3.73281 7.15262Z" fill="#C439DD"/>
</svg>
