<svg width="171" height="31" viewBox="0 0 171 31" fill="none" xmlns="http://www.w3.org/2000/svg">
<g clip-path="url(#clip0)">
<path d="M34.4275 8.59581C32.9783 8.56681 31.538 8.82624 30.1929 9.35857C28.8477 9.8909 27.6252 10.6852 26.5986 11.694C25.572 12.7028 24.7623 13.9053 24.2179 15.2296C23.6735 16.554 23.4056 17.973 23.4303 19.4017C23.3965 20.831 23.6584 22.2521 24.2001 23.5783C24.7418 24.9045 25.5519 26.108 26.5809 27.1154C27.61 28.1228 28.8365 28.9129 30.1855 29.4375C31.5346 29.9622 32.9779 30.2104 34.4275 30.167C35.8828 30.2044 37.3308 29.9513 38.6844 29.423C40.038 28.8946 41.2693 28.102 42.3042 27.0926C43.3391 26.0832 44.1564 24.878 44.7068 23.5494C45.2573 22.2207 45.5295 20.7961 45.5073 19.361C45.5321 17.9272 45.2612 16.5034 44.7111 15.1758C44.161 13.8483 43.3432 12.6447 42.3071 11.6381C41.2711 10.6315 40.0385 9.84279 38.684 9.31983C37.3295 8.79687 35.8814 8.55055 34.4275 8.59581ZM34.4688 25.7098C33.6418 25.7131 32.8228 25.5499 32.062 25.2303C31.3013 24.9106 30.6147 24.4412 30.0443 23.8508C29.474 23.2604 29.032 22.5615 28.7453 21.7967C28.4586 21.032 28.3333 20.2176 28.377 19.4035C28.3244 18.5888 28.442 17.7721 28.7224 17.0039C29.0028 16.2358 29.4401 15.5325 30.0072 14.9376C30.5743 14.3427 31.2592 13.8688 32.0195 13.5453C32.7798 13.2217 33.5994 13.0554 34.4275 13.0566C35.2599 13.0532 36.0843 13.2175 36.85 13.5392C37.6158 13.8609 38.307 14.3333 38.8811 14.9274C39.4553 15.5216 39.9004 16.2251 40.1891 16.9947C40.4779 17.7644 40.6043 18.584 40.5606 19.4035C40.6043 20.2176 40.479 21.032 40.1923 21.7967C39.9056 22.5615 39.4636 23.2604 38.8932 23.8508C38.3229 24.4412 37.6363 24.9106 36.8755 25.2303C36.1148 25.5499 35.2958 25.7131 34.4688 25.7098ZM46.8534 13.2972H49.9209V29.7671H54.8263V8.99747H46.8552L46.8534 13.2972ZM11.0762 13.0548C12.2818 13.0413 13.4593 13.4133 14.4323 14.1151C15.4054 14.8169 16.1215 15.8107 16.4734 16.9475H21.666C21.2269 14.5358 19.918 12.362 17.9806 10.827C16.0433 9.2921 13.6082 8.49963 11.1247 8.59581C9.67529 8.5668 8.23489 8.82628 6.88959 9.35873C5.5443 9.89117 4.32176 10.6856 3.29511 11.6946C2.26845 12.7036 1.45877 13.9063 0.914499 15.2309C0.370226 16.5554 0.102542 17.9746 0.127461 19.4035C0.0933734 20.8329 0.355115 22.2541 0.896708 23.5804C1.4383 24.9067 2.24839 26.1103 3.27751 27.1177C4.30664 28.1252 5.53323 28.9153 6.8824 29.4398C8.23157 29.9644 9.67502 30.2124 11.1247 30.1687C13.6067 30.2457 16.034 29.4398 17.9631 27.8983C19.8922 26.3568 21.1944 24.1826 21.6318 21.7728H16.4806C16.1455 22.915 15.4408 23.918 14.4739 24.6287C13.5069 25.3395 12.3308 25.7191 11.1247 25.7098C10.2988 25.7155 9.48057 25.5536 8.72087 25.2343C7.96118 24.9149 7.27628 24.4448 6.70876 23.8533C6.14124 23.2618 5.70326 22.5615 5.42204 21.796C5.14083 21.0305 5.0224 20.2161 5.07413 19.4035C5.01383 18.5909 5.12439 17.7749 5.39891 17.0064C5.67342 16.2379 6.10596 15.5336 6.66943 14.9376C7.2329 14.3416 7.91515 13.8667 8.67345 13.5427C9.43175 13.2187 10.2497 13.0526 11.0762 13.0548ZM140.068 17.3934L136.479 16.8715C134.763 16.6308 133.535 16.0681 133.535 14.7481C133.535 13.3025 135.131 12.5788 137.304 12.5788C139.675 12.5788 141.188 13.5821 141.515 15.233H146.257C145.719 11.0553 142.454 8.60465 137.426 8.60465C132.234 8.60465 128.8 11.2163 128.8 14.9109C128.8 18.4498 131.049 20.4953 135.587 21.1376L139.176 21.6595C140.935 21.9002 141.915 22.585 141.915 23.8696C141.915 25.5169 140.199 26.1999 137.827 26.1999C134.923 26.1999 133.287 25.0356 133.043 23.268H128.211C128.662 27.3253 131.891 30.1687 137.778 30.1687C143.134 30.1687 146.69 27.7588 146.69 23.6218C146.691 19.9237 144.116 17.9968 140.068 17.3934ZM52.3745 0.440486C51.9613 0.425211 51.5493 0.493323 51.1638 0.640642C50.7782 0.787961 50.4273 1.01138 50.1325 1.29719C49.8377 1.583 49.6053 1.92518 49.4494 2.30273C49.2936 2.68028 49.2176 3.08524 49.2262 3.49276C49.2262 4.31588 49.5579 5.10529 50.1483 5.68733C50.7387 6.26936 51.5395 6.59635 52.3745 6.59635C53.2094 6.59635 54.0102 6.26936 54.6006 5.68733C55.191 5.10529 55.5227 4.31588 55.5227 3.49276C55.5313 3.08524 55.4553 2.68028 55.2995 2.30273C55.1436 1.92518 54.9112 1.583 54.6164 1.29719C54.3216 1.01138 53.9707 0.787961 53.5851 0.640642C53.1996 0.493323 52.7876 0.425211 52.3745 0.440486ZM124.37 16.1088C124.37 11.6109 121.59 8.59758 115.703 8.59758C110.139 8.59758 107.036 11.3703 106.422 15.6275H111.288C111.534 13.9802 112.842 12.6195 115.62 12.6195C118.115 12.6195 119.341 13.7042 119.341 15.0295C119.341 16.7564 117.092 17.1988 114.316 17.4801C110.546 17.8818 105.894 19.1664 105.894 23.9881C105.894 27.7252 108.716 30.1334 113.214 30.1334C114.6 30.2614 115.994 29.973 117.211 29.306C118.428 28.6391 119.412 27.6248 120.034 26.3963C120.061 26.8703 120.184 27.3342 120.395 27.7612C120.605 28.1881 120.9 28.5696 121.261 28.8835C121.622 29.1974 122.043 29.4374 122.499 29.5897C122.955 29.742 123.438 29.8035 123.918 29.7706H126.779V25.4691H124.37V16.1088ZM119.546 21.3322C119.516 22.0029 119.351 22.661 119.06 23.2682C118.77 23.8753 118.359 24.4192 117.853 24.8681C117.347 25.317 116.755 25.662 116.111 25.8827C115.468 26.1035 114.787 26.1957 114.107 26.1539C112.268 26.1539 110.713 25.3913 110.713 23.7846C110.713 21.7356 113.208 21.1729 115.497 20.9323C117.704 20.7324 118.93 20.2493 119.544 19.3257L119.546 21.3322ZM93.504 8.59227C92.2364 8.5753 90.9809 8.83639 89.8283 9.35664C88.6757 9.87688 87.6548 10.6433 86.8396 11.6003V0.24054H81.9342V29.7671H86.7571V27.0368C87.5665 28.0299 88.5947 28.8282 89.7637 29.3712C90.9328 29.9142 92.2119 30.1875 93.504 30.1705C94.9104 30.1666 96.3014 29.8811 97.5926 29.3314C98.8838 28.7817 100.048 27.9792 101.016 26.9726C101.983 25.966 102.732 24.7763 103.219 23.4755C103.706 22.1747 103.92 20.79 103.848 19.4053C103.914 18.0198 103.697 16.6353 103.208 15.3345C102.72 14.0338 101.971 12.8434 101.005 11.8344C100.04 10.8255 98.8778 10.0187 97.589 9.46227C96.3002 8.90583 94.9109 8.61114 93.504 8.59581V8.59227ZM92.7681 25.7062C91.9414 25.7095 91.1228 25.5464 90.3622 25.227C89.6017 24.9076 88.9153 24.4385 88.345 23.8485C87.7748 23.2585 87.3326 22.5599 87.0457 21.7956C86.7588 21.0313 86.6331 20.2174 86.6763 19.4035C86.6362 18.585 86.7651 17.767 87.0551 16.9991C87.3451 16.2311 87.7902 15.5292 88.3634 14.9358C88.9366 14.3424 89.6261 13.8699 90.39 13.5469C91.1539 13.2238 91.9764 13.057 92.8076 13.0566C93.6367 13.052 94.4579 13.2161 95.2198 13.5384C95.9817 13.8608 96.668 14.3346 97.2358 14.9303C97.8036 15.5259 98.2407 16.2305 98.5199 17.0002C98.799 17.7699 98.9141 18.588 98.8581 19.4035C98.9018 20.2175 98.7766 21.0317 98.49 21.7963C98.2034 22.5609 97.7615 23.2598 97.1914 23.8502C96.6212 24.4405 95.9349 24.91 95.1743 25.2297C94.4137 25.5495 93.5949 25.7128 92.7681 25.7098V25.7062ZM70.1994 8.59581C68.9373 8.51563 67.6756 8.75825 66.5366 9.30014C65.3976 9.84204 64.4199 10.6648 63.6983 11.6888V8.99747H58.8324V29.7653H63.7378V18.4781C63.6758 17.7865 63.761 17.0898 63.988 16.4326C64.215 15.7755 64.5787 15.1722 65.0559 14.6617C65.5331 14.1511 66.1132 13.7444 66.7591 13.4677C67.4049 13.191 68.1023 13.0504 68.8065 13.0548C69.4402 13.0352 70.0709 13.1491 70.6564 13.3887C71.2419 13.6284 71.7689 13.9884 72.2022 14.4447C72.6355 14.9009 72.9651 15.443 73.1691 16.0348C73.3731 16.6266 73.4468 17.2544 73.3853 17.8765V29.7671H78.2906V17.5155C78.2942 12.2922 75.5553 8.59581 70.1994 8.59581ZM170.077 18.7205C170.12 17.3732 169.882 16.0316 169.376 14.7791C168.871 13.5266 168.109 12.3902 167.139 11.4405C166.169 10.4909 165.01 9.74837 163.736 9.25926C162.462 8.77015 161.099 8.54491 159.733 8.59758C158.286 8.56314 156.847 8.81945 155.504 9.35088C154.161 9.88232 152.941 10.6777 151.92 11.6887C150.899 12.6997 150.097 13.9051 149.563 15.2314C149.03 16.5577 148.776 17.9773 148.817 19.4035C148.779 20.8338 149.038 22.2566 149.578 23.5846C150.119 24.9125 150.929 26.1176 151.959 27.1258C152.988 28.1339 154.217 28.9239 155.567 29.4472C156.918 29.9705 158.363 30.216 159.814 30.1687C162.083 30.2909 164.325 29.6442 166.17 28.3361C168.014 27.028 169.349 25.1372 169.953 22.9778H164.841C164.429 23.9108 163.729 24.6923 162.842 25.2115C161.954 25.7307 160.923 25.9614 159.895 25.8708C158.389 25.9174 156.922 25.3929 155.796 24.4054C154.671 23.4179 153.972 22.0425 153.844 20.5625H170.075V18.7205H170.077ZM154.128 17.1121C154.392 15.8721 155.089 14.7629 156.098 13.9775C157.106 13.1921 158.362 12.7804 159.647 12.8141C160.928 12.7362 162.193 13.1343 163.192 13.9298C164.19 14.7253 164.85 15.8606 165.042 17.1121H154.128Z" fill="white"/>
</g>
<defs>
<clipPath id="clip0">
<rect width="169.949" height="29.9282" fill="white" transform="translate(0.127441 0.24054)"/>
</clipPath>
</defs>
</svg>
