<svg width="186" height="41" viewBox="0 0 186 41" fill="none" xmlns="http://www.w3.org/2000/svg">
<g clip-path="url(#clip0)">
<path d="M72.4334 13.0408C73.5678 13.7263 74.5278 14.6689 75.1385 15.9542C75.8366 17.2396 76.1857 18.782 76.1857 20.4957C76.1857 22.2096 75.8366 23.6663 75.0513 24.9516C74.3532 26.2369 73.306 27.1796 71.997 27.7793C70.6881 28.4649 69.1173 28.8077 67.4594 28.8077C66.4994 28.8077 65.6267 28.6362 64.7541 28.2936C63.8814 28.0365 63.096 27.5222 62.4851 26.9226V35.8343H57.4238V12.3553H61.787L62.2235 14.2404C64.1432 12.698 66.2376 11.9268 68.4191 11.9268C69.9026 11.9268 71.2988 12.2696 72.4334 13.0408ZM69.6409 23.6664C70.5135 22.8952 70.9498 21.8668 70.9498 20.5815C70.9498 19.2962 70.5135 18.2679 69.7282 17.411C68.9428 16.5541 67.8956 16.2113 66.7612 16.2113C65.8013 16.2113 64.9285 16.3827 64.2304 16.8111C63.5323 17.1539 63.0088 17.7537 62.5725 18.525V22.3809C62.8342 23.1522 63.3579 23.7519 63.9688 24.1805C64.6669 24.6088 65.4522 24.8659 66.4122 24.8659C67.721 24.8659 68.7682 24.4375 69.6409 23.6664Z" fill="white"/>
<path d="M79.1525 16.0381C79.938 14.8384 80.985 13.8102 82.3812 13.1246C83.7775 12.4391 85.3483 12.0107 87.0936 12.0107C88.8389 12.0107 90.4096 12.3535 91.8059 13.1246C93.1149 13.8102 94.1621 14.8384 94.9474 16.1238C95.7327 17.4091 96.0818 18.7802 96.0818 20.4083C96.0818 22.0364 95.7327 23.4074 94.9474 24.6927C94.1621 25.978 93.2021 27.0063 91.8059 27.6919C90.4968 28.3773 88.8389 28.8059 87.0936 28.8059C85.3483 28.8059 83.7775 28.4631 82.3812 27.7776C80.985 27.092 79.938 26.1495 79.1525 24.8641C78.4543 23.5788 78.0181 22.122 78.0181 20.4083C78.0181 18.7802 78.4543 17.3234 79.1525 16.0381ZM84.3012 23.493C84.9993 24.3499 85.9592 24.6927 87.0936 24.6927C88.228 24.6927 89.188 24.2644 89.8861 23.493C90.5842 22.7218 90.9333 21.6078 90.9333 20.4083C90.9333 19.123 90.5842 18.0947 89.8861 17.3234C89.1006 16.4665 88.228 16.0381 87.0064 16.0381C85.8718 16.0381 84.9993 16.4665 84.2139 17.2377C83.5158 18.0947 83.1667 19.123 83.1667 20.4083C83.1667 21.6078 83.5158 22.6363 84.3012 23.493Z" fill="white"/>
<path d="M104.285 0.186523V28.3784H99.2241V0.186523H104.285Z" fill="white"/>
<path d="M125.054 12.7826L114.757 35.9188H109.87L113.709 27.6069L106.379 12.7826H112.139L116.328 22.037L120.516 12.7826H125.054Z" fill="white"/>
<path d="M144.426 12.7819V28.3773C144.426 29.8341 143.989 31.2052 143.117 32.4049C142.244 33.6044 141.11 34.5471 139.626 35.2325C138.143 35.9182 136.572 36.2608 134.827 36.2608C133.518 36.2608 132.383 36.0895 131.423 35.8324C130.463 35.4896 129.678 35.1468 129.067 34.8042C128.369 34.3756 127.671 33.8615 126.885 33.1761L129.853 29.7484C130.551 30.434 131.336 30.9481 132.034 31.2909C132.732 31.6335 133.692 31.8906 134.739 31.8906C136.048 31.8906 137.095 31.548 137.968 30.9481C138.841 30.3482 139.277 29.4057 139.277 28.2918V26.0638C138.753 26.835 138.055 27.5206 137.008 28.0347C135.961 28.5488 134.739 28.8059 133.343 28.8059C131.947 28.8059 130.551 28.4631 129.329 27.6919C128.107 27.0063 127.147 25.978 126.362 24.6927C125.664 23.4074 125.228 22.0364 125.228 20.494C125.228 18.9515 125.577 17.4948 126.362 16.2095C127.147 14.9241 128.107 13.8959 129.416 13.1246C130.638 12.3535 131.947 12.0107 133.343 12.0107C134.652 12.0107 135.786 12.1821 136.834 12.5248C137.881 12.8676 138.666 13.3817 139.19 13.9816L139.713 12.7819H144.426ZM139.277 22.3792V18.5231C138.928 17.7519 138.404 17.1521 137.619 16.7236C136.834 16.2952 135.961 16.0381 134.914 16.0381C133.692 16.0381 132.645 16.4665 131.772 17.2377C130.9 18.009 130.463 19.0373 130.463 20.3226C130.463 21.5223 130.9 22.6363 131.772 23.493C132.645 24.3499 133.692 24.7785 134.914 24.7785C136.921 24.6927 138.404 23.9216 139.277 22.3792Z" fill="white"/>
<path d="M148.616 16.0399C149.401 14.7546 150.448 13.812 151.845 13.0408C153.241 12.3553 154.812 11.9268 156.557 11.9268C158.302 11.9268 159.873 12.2696 161.269 13.0408C162.578 13.7263 163.625 14.7546 164.411 16.0399C165.109 17.3253 165.545 18.6963 165.545 20.3244C165.545 21.9525 165.196 23.3235 164.411 24.6088C163.713 25.8941 162.665 26.9226 161.269 27.608C159.96 28.2936 158.302 28.722 156.557 28.722C154.812 28.722 153.241 28.3792 151.845 27.6937C150.448 27.0081 149.401 26.0656 148.616 24.7803C147.831 23.4949 147.481 22.0382 147.481 20.2387C147.481 18.782 147.831 17.3253 148.616 16.0399ZM153.677 23.4949C154.375 24.3518 155.335 24.6946 156.47 24.6946C157.604 24.6946 158.564 24.266 159.262 23.4949C159.96 22.7237 160.309 21.6097 160.309 20.4101C160.309 19.1247 159.96 18.0965 159.262 17.3253C158.564 16.5541 157.604 16.1256 156.47 16.1256C155.335 16.1256 154.463 16.5541 153.677 17.3253C152.892 18.0965 152.543 19.2104 152.543 20.4101C152.63 21.6097 152.979 22.6379 153.677 23.4949Z" fill="white"/>
<path d="M183.435 13.296C184.483 14.1529 184.918 15.2669 185.005 16.6379V28.3773H179.857V18.5231C179.77 16.9807 178.984 16.2095 177.501 16.2095C176.366 16.2095 175.406 16.7236 174.708 17.8376C174.01 18.9515 173.661 20.3225 173.661 21.9507V28.3773H168.6V12.7819H173.225L173.574 15.2669C174.185 14.2386 174.97 13.4674 176.017 12.8676C177.064 12.2678 178.286 12.0107 179.682 12.0107C181.165 12.0107 182.475 12.4391 183.435 13.296Z" fill="white"/>
<path d="M35.782 12.5268C34.9093 12.0127 33.7749 12.0127 32.8151 12.5268L26.0083 16.4685L21.3833 19.0393L14.5767 22.9809C13.7041 23.495 12.5697 23.495 11.6097 22.9809L6.19934 19.896C5.32669 19.3819 4.71584 18.4394 4.71584 17.4111V11.3271C4.71584 10.2989 5.23944 9.35628 6.19934 8.84214L11.5225 5.84301C12.3951 5.32887 13.5296 5.32887 14.4895 5.84301L19.8126 8.84214C20.6852 9.35628 21.2961 10.2989 21.2961 11.3271V15.2689L25.9211 12.6125V8.67077C25.9211 7.64248 25.3976 6.6999 24.4377 6.18576L14.5767 0.530256C13.7041 0.0161189 12.5697 0.0161189 11.6097 0.530256L1.57432 6.18576C0.614407 6.6999 0.0908203 7.64248 0.0908203 8.67077V20.0675C0.0908203 21.0957 0.614407 22.0384 1.57432 22.5525L11.6097 28.208C12.4824 28.7221 13.6168 28.7221 14.5767 28.208L21.3833 24.3519L26.0083 21.6956L32.8151 17.8395C33.6877 17.3254 34.8221 17.3254 35.782 17.8395L41.1052 20.8387C41.9777 21.3528 42.5886 22.2955 42.5886 23.3237V29.4076C42.5886 30.436 42.0651 31.3785 41.1052 31.8926L35.782 34.9775C34.9093 35.4916 33.7749 35.4916 32.8151 34.9775L27.492 31.9783C26.6192 31.4642 26.0083 30.5216 26.0083 29.4933V25.5517L21.3833 28.208V32.1497C21.3833 33.1779 21.907 34.1206 22.8668 34.6347L32.9023 40.2902C33.7749 40.8043 34.9093 40.8043 35.8692 40.2902L45.9048 34.6347C46.7773 34.1206 47.3882 33.1779 47.3882 32.1497V20.7529C47.3882 19.7247 46.8646 18.7822 45.9048 18.2681L35.782 12.5268Z" fill="white"/>
</g>
<defs>
<clipPath id="clip0">
<rect width="184.914" height="40.6168" fill="white" transform="translate(0.0908203 0.102783)"/>
</clipPath>
</defs>
</svg>
