<svg width="363" height="303" viewBox="0 0 363 303" fill="none" xmlns="http://www.w3.org/2000/svg">
    <path d="M14.375 88.5L14.178 88.9596L14.1843 88.9622L14.375 88.5ZM1.5 78.875L1.11785 78.5526L0.852928 78.8666L1.10957 79.1873L1.5 78.875ZM15 62.875L15.3967 62.5707L15.0185 62.0777L14.6179 62.5526L15 62.875ZM38.25 68.75L37.8754 68.4186L37.8683 68.427L38.25 68.75ZM41.125 21.625H41.625V21.125H41.125V21.625ZM10.875 21.625H10.375V22.125H10.875V21.625ZM10.875 2.49999V1.99999H10.375V2.49999H10.875ZM65.625 2.49999H66.125V1.99999H65.625V2.49999ZM57 83.25L56.649 82.8939L56.6465 82.8964L57 83.25ZM31.875 91.25C25.5153 91.25 19.7479 90.1765 14.5657 88.0378L14.1843 88.9622C19.5021 91.1569 25.4014 92.25 31.875 92.25V91.25ZM14.572 88.0404C9.3921 85.8205 5.16877 82.6606 1.89043 78.5627L1.10957 79.1873C4.49789 83.4228 8.8579 86.6795 14.178 88.9596L14.572 88.0404ZM1.88215 79.1974L15.3821 63.1974L14.6179 62.5526L1.11785 78.5526L1.88215 79.1974ZM14.6033 63.1793C19.323 69.3319 24.4954 72.5 30.125 72.5V71.5C24.9212 71.5 20.0103 68.5848 15.3967 62.5707L14.6033 63.1793ZM30.125 72.5C33.8136 72.5 36.6793 71.3803 38.6317 69.073L37.8683 68.427C36.154 70.453 33.603 71.5 30.125 71.5V72.5ZM38.6245 69.0813C40.6513 66.7901 41.625 63.4857 41.625 59.25H40.625C40.625 63.3476 39.682 66.3766 37.8755 68.4187L38.6245 69.0813ZM41.625 59.25V21.625H40.625V59.25H41.625ZM41.125 21.125H10.875V22.125H41.125V21.125ZM11.375 21.625V2.49999H10.375V21.625H11.375ZM10.875 2.99999H65.625V1.99999H10.875V2.99999ZM65.125 2.49999V57.75H66.125V2.49999H65.125ZM65.125 57.75C65.125 69.0044 62.2706 77.3538 56.649 82.8939L57.351 83.6061C63.2294 77.8129 66.125 69.1623 66.125 57.75H65.125ZM56.6465 82.8964C51.1047 88.4382 42.8775 91.25 31.875 91.25V92.25C43.0392 92.25 51.5619 89.3952 57.3536 83.6036L56.6465 82.8964ZM101.455 85.875L101.22 86.316L101.222 86.3171L101.455 85.875ZM84.0801 69.625L83.6518 69.883L83.6541 69.8868L84.0801 69.625ZM84.0801 22.875L83.6541 22.6132L83.6518 22.617L84.0801 22.875ZM101.455 6.62499L101.222 6.18285L101.22 6.18396L101.455 6.62499ZM151.33 6.62499L151.095 7.06604L151.097 7.06713L151.33 6.62499ZM168.705 22.875L168.277 23.133L168.279 23.1368L168.705 22.875ZM168.705 69.625L168.279 69.3632L168.277 69.367L168.705 69.625ZM151.33 85.875L151.097 85.4329L151.095 85.434L151.33 85.875ZM138.455 68.125L138.706 68.5573L138.455 68.125ZM146.955 59.375L147.392 59.6178L147.394 59.6138L146.955 59.375ZM146.955 33.25L146.516 33.4888L146.518 33.4928L146.955 33.25ZM138.455 24.375L138.706 23.9427L138.455 24.375ZM114.455 24.375L114.204 23.9427L114.455 24.375ZM105.955 33.25L106.392 33.4928L106.394 33.4888L105.955 33.25ZM105.955 59.375L105.516 59.6138L105.518 59.6178L105.955 59.375ZM114.455 68.125L114.706 67.6927L114.455 68.125ZM126.455 91.25C117.278 91.25 109.026 89.3077 101.689 85.4329L101.222 86.3171C108.717 90.2756 117.132 92.25 126.455 92.25V91.25ZM101.691 85.434C94.4336 81.558 88.7085 76.2024 84.5061 69.3632L83.6541 69.8868C87.9517 76.8809 93.8099 82.3586 101.22 86.316L101.691 85.434ZM84.5084 69.367C80.3921 62.5339 78.3301 54.8327 78.3301 46.25H77.3301C77.3301 55.0007 79.4348 62.8827 83.6518 69.883L84.5084 69.367ZM78.3301 46.25C78.3301 37.6673 80.3921 29.9661 84.5084 23.133L83.6518 22.617C79.4348 29.6173 77.3301 37.4993 77.3301 46.25H78.3301ZM84.5061 23.1368C88.7085 16.2976 94.4336 10.942 101.691 7.06603L101.22 6.18396C93.8099 10.1414 87.9517 15.6191 83.6541 22.6132L84.5061 23.1368ZM101.689 7.06713C109.026 3.19226 117.278 1.24999 126.455 1.24999V0.249994C117.132 0.249994 108.717 2.2244 101.222 6.18286L101.689 7.06713ZM126.455 1.24999C135.632 1.24999 143.842 3.19228 151.095 7.06603L151.566 6.18396C144.152 2.22437 135.778 0.249994 126.455 0.249994V1.24999ZM151.097 7.06713C158.436 10.943 164.159 16.2974 168.277 23.133L169.133 22.617C164.918 15.6193 159.057 10.1403 151.564 6.18286L151.097 7.06713ZM168.279 23.1368C172.477 29.9693 174.58 37.6692 174.58 46.25H175.58C175.58 37.4974 173.433 29.614 169.131 22.6132L168.279 23.1368ZM174.58 46.25C174.58 54.8308 172.477 62.5307 168.279 69.3632L169.131 69.8868C173.433 62.886 175.58 55.0026 175.58 46.25H174.58ZM168.277 69.367C164.159 76.2026 158.436 81.557 151.097 85.4329L151.564 86.3171C159.057 82.3597 164.918 76.8807 169.133 69.883L168.277 69.367ZM151.095 85.434C143.842 89.3077 135.632 91.25 126.455 91.25V92.25C135.778 92.25 144.152 90.2756 151.566 86.316L151.095 85.434ZM126.455 71.75C130.954 71.75 135.042 70.6879 138.706 68.5573L138.204 67.6927C134.702 69.7288 130.789 70.75 126.455 70.75V71.75ZM138.706 68.5573C142.37 66.427 145.267 63.4437 147.392 59.6178L146.518 59.1322C144.477 62.8063 141.706 65.6563 138.204 67.6927L138.706 68.5573ZM147.394 59.6138C149.522 55.6982 150.58 51.2393 150.58 46.25H149.58C149.58 51.094 148.554 55.3851 146.516 59.1362L147.394 59.6138ZM150.58 46.25C150.58 41.2609 149.522 36.8417 147.392 33.0072L146.518 33.4928C148.554 37.1583 149.58 41.4057 149.58 46.25H150.58ZM147.394 33.0112C145.27 29.1018 142.373 26.0746 138.706 23.9427L138.204 24.8072C141.704 26.8421 144.474 29.7315 146.516 33.4888L147.394 33.0112ZM138.706 23.9427C135.042 21.8121 130.954 20.75 126.455 20.75V21.75C130.789 21.75 134.702 22.7712 138.204 24.8072L138.706 23.9427ZM126.455 20.75C121.956 20.75 117.868 21.8121 114.204 23.9427L114.706 24.8072C118.208 22.7712 122.121 21.75 126.455 21.75V20.75ZM114.204 23.9427C110.537 26.0746 107.64 29.1018 105.516 33.0112L106.394 33.4888C108.436 29.7315 111.207 26.8421 114.706 24.8072L114.204 23.9427ZM105.518 33.0072C103.388 36.8417 102.33 41.2609 102.33 46.25H103.33C103.33 41.4057 104.356 37.1583 106.392 33.4928L105.518 33.0072ZM102.33 46.25C102.33 51.2393 103.388 55.6982 105.516 59.6138L106.394 59.1362C104.356 55.3851 103.33 51.094 103.33 46.25H102.33ZM105.518 59.6178C107.643 63.4437 110.54 66.427 114.204 68.5573L114.706 67.6927C111.204 65.6563 108.433 62.8063 106.392 59.1322L105.518 59.6178ZM114.204 68.5573C117.868 70.6879 121.956 71.75 126.455 71.75V70.75C122.121 70.75 118.208 69.7288 114.706 67.6927L114.204 68.5573ZM188.043 2.49999V1.99999H187.543V2.49999H188.043ZM212.793 2.49999H213.293V1.99999H212.793V2.49999ZM212.793 90V90.5H213.293V90H212.793ZM188.043 90H187.543V90.5H188.043V90ZM188.043 2.99999H212.793V1.99999H188.043V2.99999ZM212.293 2.49999V90H213.293V2.49999H212.293ZM212.793 89.5H188.043V90.5H212.793V89.5ZM188.543 90V2.49999H187.543V90H188.543ZM313.651 2.49999H314.151V1.99999H313.651V2.49999ZM313.651 90V90.5H314.151V90H313.651ZM293.276 90L292.891 90.319L293.041 90.5H293.276V90ZM254.651 43.375L255.036 43.056L254.151 41.9877V43.375H254.651ZM254.651 90V90.5H255.151V90H254.651ZM230.401 90H229.901V90.5H230.401V90ZM230.401 2.49999V1.99999H229.901V2.49999H230.401ZM250.776 2.49999L251.161 2.18102L251.011 1.99999H250.776V2.49999ZM289.401 49.125L289.016 49.444L289.901 50.5123V49.125H289.401ZM289.401 2.49999V1.99999H288.901V2.49999H289.401ZM313.151 2.49999V90H314.151V2.49999H313.151ZM313.651 89.5H293.276V90.5H313.651V89.5ZM293.661 89.681L255.036 43.056L254.266 43.694L292.891 90.319L293.661 89.681ZM254.151 43.375V90H255.151V43.375H254.151ZM254.651 89.5H230.401V90.5H254.651V89.5ZM230.901 90V2.49999H229.901V90H230.901ZM230.401 2.99999H250.776V1.99999H230.401V2.99999ZM250.391 2.81897L289.016 49.444L289.786 48.806L251.161 2.18102L250.391 2.81897ZM289.901 49.125V2.49999H288.901V49.125H289.901ZM289.401 2.99999H313.651V1.99999H289.401V2.99999ZM31.375 127.125H31.875V126.625H31.375V127.125ZM4.5 127.125H4V127.625H4.5V127.125ZM4.5 107.5V107H4V107.5H4.5ZM82.875 107.5H83.375V107H82.875V107.5ZM82.875 127.125V127.625H83.375V127.125H82.875ZM56.125 127.125V126.625H55.625V127.125H56.125ZM56.125 195V195.5H56.625V195H56.125ZM31.375 195H30.875V195.5H31.375V195ZM31.375 126.625H4.5V127.625H31.375V126.625ZM5 127.125V107.5H4V127.125H5ZM4.5 108H82.875V107H4.5V108ZM82.375 107.5V127.125H83.375V107.5H82.375ZM82.875 126.625H56.125V127.625H82.875V126.625ZM55.625 127.125V195H56.625V127.125H55.625ZM56.125 194.5H31.375V195.5H56.125V194.5ZM31.875 195V127.125H30.875V195H31.875ZM175.346 107.5H175.846V107H175.346V107.5ZM175.346 195V195.5H175.846V195H175.346ZM150.596 195H150.096V195.5H150.596V195ZM150.596 160.875H151.096V160.375H150.596V160.875ZM116.846 160.875V160.375H116.346V160.875H116.846ZM116.846 195V195.5H117.346V195H116.846ZM92.0957 195H91.5957V195.5H92.0957V195ZM92.0957 107.5V107H91.5957V107.5H92.0957ZM116.846 107.5H117.346V107H116.846V107.5ZM116.846 140.375H116.346V140.875H116.846V140.375ZM150.596 140.375V140.875H151.096V140.375H150.596ZM150.596 107.5V107H150.096V107.5H150.596ZM174.846 107.5V195H175.846V107.5H174.846ZM175.346 194.5H150.596V195.5H175.346V194.5ZM151.096 195V160.875H150.096V195H151.096ZM150.596 160.375H116.846V161.375H150.596V160.375ZM116.346 160.875V195H117.346V160.875H116.346ZM116.846 194.5H92.0957V195.5H116.846V194.5ZM92.5957 195V107.5H91.5957V195H92.5957ZM92.0957 108H116.846V107H92.0957V108ZM116.346 107.5V140.375H117.346V107.5H116.346ZM116.846 140.875H150.596V139.875H116.846V140.875ZM151.096 140.375V107.5H150.096V140.375H151.096ZM150.596 108H175.346V107H150.596V108ZM263.054 175.875H263.554V175.375H263.054V175.875ZM263.054 195V195.5H263.554V195H263.054ZM192.804 195H192.304V195.5H192.804V195ZM192.804 107.5V107H192.304V107.5H192.804ZM261.429 107.5H261.929V107H261.429V107.5ZM261.429 126.625V127.125H261.929V126.625H261.429ZM217.304 126.625V126.125H216.804V126.625H217.304ZM217.304 141.375H216.804V141.875H217.304V141.375ZM256.179 141.375H256.679V140.875H256.179V141.375ZM256.179 159.875V160.375H256.679V159.875H256.179ZM217.304 159.875V159.375H216.804V159.875H217.304ZM217.304 175.875H216.804V176.375H217.304V175.875ZM262.554 175.875V195H263.554V175.875H262.554ZM263.054 194.5H192.804V195.5H263.054V194.5ZM193.304 195V107.5H192.304V195H193.304ZM192.804 108H261.429V107H192.804V108ZM260.929 107.5V126.625H261.929V107.5H260.929ZM261.429 126.125H217.304V127.125H261.429V126.125ZM216.804 126.625V141.375H217.804V126.625H216.804ZM217.304 141.875H256.179V140.875H217.304V141.875ZM255.679 141.375V159.875H256.679V141.375H255.679ZM256.179 159.375H217.304V160.375H256.179V159.375ZM216.804 159.875V175.875H217.804V159.875H216.804ZM217.304 176.375H263.054V175.375H217.304V176.375ZM31.625 296L31.3873 296.44L31.3934 296.443L31.625 296ZM14.5 279.75L14.9283 279.492L14.5 279.75ZM14.5 232.75L14.0717 232.492L14.5 232.75ZM31.625 216.625L31.8587 217.067L31.8606 217.066L31.625 216.625ZM78 215L77.798 215.457L78 215ZM94 227.25L94.3355 227.621L94.6837 227.306L94.391 226.938L94 227.25ZM78.25 241.5L77.8651 241.819L78.1984 242.221L78.5855 241.871L78.25 241.5ZM44.875 234.375L44.6322 233.938L44.628 233.94L44.875 234.375ZM36.25 243.25L35.8107 243.011L35.8088 243.015L36.25 243.25ZM36.25 269.375L35.8066 269.606L35.8129 269.618L36.25 269.375ZM44.875 278.125L44.628 278.56L44.6322 278.562L44.875 278.125ZM78.25 271L78.5855 270.629L78.1984 270.279L77.8651 270.681L78.25 271ZM94 285.25L94.391 285.562L94.6837 285.194L94.3355 284.879L94 285.25ZM78 297.5L77.798 297.043L78 297.5ZM56.375 301.25C47.2802 301.25 39.111 299.349 31.8566 295.557L31.3934 296.443C38.8056 300.318 47.1365 302.25 56.375 302.25V301.25ZM31.8627 295.56C24.6896 291.685 19.0478 286.33 14.9283 279.492L14.0717 280.008C18.2855 287.003 24.0604 292.482 31.3874 296.44L31.8627 295.56ZM14.9283 279.492C10.8124 272.66 8.75 264.917 8.75 256.25H7.75C7.75 265.083 9.85422 273.007 14.0717 280.008L14.9283 279.492ZM8.75 256.25C8.75 247.583 10.8124 239.84 14.9283 233.008L14.0717 232.492C9.85422 239.493 7.75 247.417 7.75 256.25H8.75ZM14.9283 233.008C19.0473 226.171 24.6878 220.859 31.8587 217.067L31.3913 216.183C24.0622 220.058 18.2861 225.496 14.0717 232.492L14.9283 233.008ZM31.8606 217.066C39.1142 213.192 47.2819 211.25 56.375 211.25V210.25C47.1348 210.25 38.8025 212.225 31.3894 216.184L31.8606 217.066ZM56.375 211.25C64.3152 211.25 71.4533 212.656 77.798 215.457L78.202 214.543C71.7133 211.677 64.4348 210.25 56.375 210.25V211.25ZM77.798 215.457C84.143 218.259 89.4108 222.293 93.609 227.562L94.391 226.938C90.0892 221.54 84.6903 217.408 78.202 214.543L77.798 215.457ZM93.6645 226.879L77.9146 241.129L78.5855 241.871L94.3355 227.621L93.6645 226.879ZM78.6349 241.181C72.8838 234.246 65.873 230.75 57.625 230.75V231.75C65.5437 231.75 72.2829 235.088 77.8651 241.819L78.6349 241.181ZM57.625 230.75C52.7993 230.75 48.4642 231.809 44.6322 233.938L45.1178 234.812C48.7858 232.774 52.9507 231.75 57.625 231.75V230.75ZM44.628 233.94C40.8773 236.071 37.937 239.099 35.8107 243.011L36.6893 243.489C38.7297 239.734 41.5394 236.845 45.122 234.81L44.628 233.94ZM35.8088 243.015C33.7645 246.848 32.75 251.264 32.75 256.25H33.75C33.75 251.402 34.7355 247.152 36.6912 243.485L35.8088 243.015ZM32.75 256.25C32.75 261.236 33.7646 265.692 35.8067 269.606L36.6933 269.144C34.7354 265.391 33.75 261.097 33.75 256.25H32.75ZM35.8129 269.618C37.94 273.447 40.8801 276.43 44.628 278.56L45.122 277.69C41.5365 275.653 38.7267 272.803 36.6871 269.132L35.8129 269.618ZM44.6322 278.562C48.4642 280.691 52.7993 281.75 57.625 281.75V280.75C52.9507 280.75 48.7858 279.726 45.1178 277.688L44.6322 278.562ZM57.625 281.75C65.873 281.75 72.8838 278.254 78.6349 271.319L77.8651 270.681C72.2829 277.412 65.5437 280.75 57.625 280.75V281.75ZM77.9146 271.371L93.6645 285.621L94.3355 284.879L78.5855 270.629L77.9146 271.371ZM93.609 284.938C89.4108 290.207 84.143 294.241 77.798 297.043L78.202 297.957C84.6903 295.092 90.0892 290.96 94.391 285.562L93.609 284.938ZM77.798 297.043C71.4533 299.844 64.3152 301.25 56.375 301.25V302.25C64.4348 302.25 71.7133 300.823 78.202 297.957L77.798 297.043ZM105.035 212.5V212H104.535V212.5H105.035ZM129.785 212.5H130.285V212H129.785V212.5ZM129.785 280.375H129.285V280.875H129.785V280.375ZM171.535 280.375H172.035V279.875H171.535V280.375ZM171.535 300V300.5H172.035V300H171.535ZM105.035 300H104.535V300.5H105.035V300ZM105.035 213H129.785V212H105.035V213ZM129.285 212.5V280.375H130.285V212.5H129.285ZM129.785 280.875H171.535V279.875H129.785V280.875ZM171.035 280.375V300H172.035V280.375H171.035ZM171.535 299.5H105.035V300.5H171.535V299.5ZM105.535 300V212.5H104.535V300H105.535ZM190.475 291.125L190.123 291.481L190.125 291.483L190.475 291.125ZM179.725 212.5V212H179.225V212.5H179.725ZM204.475 212.5H204.975V212H204.475V212.5ZM237.6 212.5V212H237.1V212.5H237.6ZM261.975 212.5H262.475V212H261.975V212.5ZM251.1 291.125L250.75 290.767L250.748 290.769L251.1 291.125ZM220.85 301.25C207.942 301.25 197.956 297.736 190.824 290.767L190.125 291.483C197.493 298.681 207.758 302.25 220.85 302.25V301.25ZM190.826 290.769C183.78 283.805 180.225 273.907 180.225 261H179.225C179.225 274.093 182.836 284.278 190.123 291.481L190.826 290.769ZM180.225 261V212.5H179.225V261H180.225ZM179.725 213H204.475V212H179.725V213ZM203.975 212.5V260.25H204.975V212.5H203.975ZM203.975 260.25C203.975 267.303 205.368 272.684 208.239 276.31C211.127 279.959 215.446 281.75 221.1 281.75V280.75C215.67 280.75 211.676 279.041 209.023 275.69C206.352 272.316 204.975 267.197 204.975 260.25H203.975ZM221.1 281.75C226.713 281.75 231.001 279.958 233.868 276.309C236.717 272.683 238.1 267.302 238.1 260.25H237.1C237.1 267.198 235.732 272.317 233.081 275.691C230.448 279.042 226.486 280.75 221.1 280.75V281.75ZM238.1 260.25V212.5H237.1V260.25H238.1ZM237.6 213H261.975V212H237.6V213ZM261.475 212.5V261H262.475V212.5H261.475ZM261.475 261C261.475 273.905 257.879 283.803 250.75 290.767L251.449 291.483C258.821 284.281 262.475 274.095 262.475 261H261.475ZM250.748 290.769C243.7 297.736 233.758 301.25 220.85 301.25V302.25C233.941 302.25 244.166 298.681 251.451 291.481L250.748 290.769ZM345.991 254.375L345.764 253.93L344.724 254.461L345.826 254.847L345.991 254.375ZM357.741 262.625L357.342 262.926L357.346 262.931L357.741 262.625ZM352.741 293.75L353.021 294.164L352.741 293.75ZM278.741 300H278.241V300.5H278.741V300ZM278.741 212.5V212H278.241V212.5H278.741ZM348.991 218.75L348.701 219.157L348.704 219.16L348.991 218.75ZM354.616 246.625L354.192 246.36L354.19 246.363L354.616 246.625ZM303.241 230.375V229.875H302.741V230.375H303.241ZM303.241 247.25H302.741V247.75H303.241V247.25ZM303.241 264.375V263.875H302.741V264.375H303.241ZM303.241 282.125H302.741V282.625H303.241V282.125ZM345.826 254.847C350.745 256.569 354.576 259.265 357.342 262.926L358.14 262.324C355.24 258.485 351.237 255.681 346.156 253.903L345.826 254.847ZM357.346 262.931C360.102 266.498 361.491 270.845 361.491 276H362.491C362.491 270.655 361.047 266.085 358.137 262.319L357.346 262.931ZM361.491 276C361.491 283.507 358.485 289.265 352.461 293.336L353.021 294.164C359.33 289.901 362.491 283.827 362.491 276H361.491ZM352.461 293.336C346.412 297.423 337.61 299.5 325.991 299.5V300.5C337.705 300.5 346.737 298.41 353.021 294.164L352.461 293.336ZM325.991 299.5H278.741V300.5H325.991V299.5ZM279.241 300V212.5H278.241V300H279.241ZM278.741 213H323.491V212H278.741V213ZM323.491 213C334.608 213 342.987 215.076 348.701 219.157L349.282 218.343C343.328 214.091 334.708 212 323.491 212V213ZM348.704 219.16C354.407 223.151 357.241 228.541 357.241 235.375H358.241C358.241 228.209 355.242 222.515 349.278 218.34L348.704 219.16ZM357.241 235.375C357.241 239.454 356.223 243.111 354.192 246.36L355.04 246.89C357.176 243.472 358.241 239.63 358.241 235.375H357.241ZM354.19 246.363C352.243 249.527 349.441 252.05 345.764 253.93L346.219 254.82C350.042 252.866 352.989 250.223 355.042 246.887L354.19 246.363ZM302.741 230.375V247.25H303.741V230.375H302.741ZM303.241 247.75H320.241V246.75H303.241V247.75ZM320.241 247.75C324.449 247.75 327.693 247.038 329.897 245.538C332.136 244.016 333.241 241.725 333.241 238.75H332.241C332.241 241.442 331.263 243.401 329.335 244.712C327.373 246.046 324.367 246.75 320.241 246.75V247.75ZM333.241 238.75C333.241 235.814 332.134 233.554 329.895 232.053C327.691 230.577 324.448 229.875 320.241 229.875V230.875C324.368 230.875 327.375 231.569 329.338 232.884C331.265 234.175 332.241 236.103 332.241 238.75H333.241ZM320.241 229.875H303.241V230.875H320.241V229.875ZM323.991 282.625C328.366 282.625 331.735 281.881 334.023 280.319C336.345 278.734 337.491 276.349 337.491 273.25H336.491C336.491 276.068 335.47 278.12 333.459 279.493C331.414 280.89 328.283 281.625 323.991 281.625V282.625ZM337.491 273.25C337.491 270.151 336.345 267.766 334.023 266.181C331.735 264.619 328.366 263.875 323.991 263.875V264.875C328.283 264.875 331.414 265.61 333.459 267.007C335.47 268.38 336.491 270.432 336.491 273.25H337.491ZM323.991 263.875H303.241V264.875H323.991V263.875ZM302.741 264.375V282.125H303.741V264.375H302.741ZM303.241 282.625H323.991V281.625H303.241V282.625Z" fill="url(#paint0_linear)"/>
    <defs>
        <linearGradient id="paint0_linear" x1="4" y1="155.264" x2="382.9" y2="155.264" gradientUnits="userSpaceOnUse">
            <stop stop-color="#00F7FF"/>
            <stop offset="0.5" stop-color="#C439DD"/>
            <stop offset="1" stop-color="#4925E9"/>
        </linearGradient>
    </defs>
</svg>
