<svg width="20" height="20" viewBox="0 0 20 20" fill="none" xmlns="http://www.w3.org/2000/svg">
<path fill-rule="evenodd" clip-rule="evenodd" d="M0 7.771C0 3.48871 3.48871 0 7.77093 0C12.0532 0 15.5419 3.48865 15.5419 7.77094C15.5419 9.625 14.8894 11.3318 13.8001 12.6697L19.0589 17.9285C19.3728 18.2423 19.3728 18.7449 19.0589 19.0589C18.745 19.3728 18.2339 19.3728 17.92 19.0589L12.6613 13.8001C11.3241 14.8872 9.62296 15.5419 7.77093 15.5419C3.48871 15.5419 0 12.0532 0 7.771ZM13.9341 7.771C13.9341 4.35767 11.1842 1.60779 7.77093 1.60779C4.35762 1.60779 1.60778 4.35767 1.60778 7.771C1.60778 11.1843 4.35763 13.9341 7.77093 13.9341C11.1842 13.9341 13.9341 11.1842 13.9341 7.771Z" fill="#424247"/>
</svg>
