<svg width="23" height="23" viewBox="0 0 23 23" fill="none" xmlns="http://www.w3.org/2000/svg">
<g clip-path="url(#clip0)">
<g clip-path="url(#clip1)">
<path fill-rule="evenodd" clip-rule="evenodd" d="M11.6444 0.517655L13.0404 2.11112L15.128 1.22555C15.4662 1.08306 15.8557 1.26653 15.9637 1.61575L16.6007 3.66942L18.865 3.70948C19.231 3.71529 19.5176 4.04034 19.4723 4.40392L19.2203 6.54139L21.2731 7.49941C21.5838 7.64497 21.7183 8.01498 21.5728 8.32597C21.293 8.90574 20.7863 9.65308 20.4435 10.2286L21.9302 11.9407C22.1703 12.2177 22.1168 12.6461 21.818 12.8565L20.0616 14.0977L20.7233 16.2655C20.8303 16.619 20.608 16.9844 20.2475 17.0556L18.1412 17.4752L17.8648 19.7233C17.8177 20.1083 17.4318 20.3572 17.0636 20.2444L15.0099 19.7787L13.8431 21.7192C13.6538 22.0351 13.2312 22.1183 12.937 21.8987L11.212 20.611L9.35622 21.9097C9.05226 22.1219 8.63854 22.0228 8.4572 21.7021L7.40773 19.8273L5.18098 20.2597C4.80242 20.3318 4.45473 20.0487 4.44158 19.6667L4.24893 17.5629L2.04206 17.0529C1.68093 16.97 1.47483 16.5948 1.59133 16.2459L2.28333 14.2093L0.474277 12.8449C0.162372 12.6098 0.14281 12.1508 0.428103 11.8887L1.85431 10.3469L0.756221 8.3648C0.576106 8.04098 0.717692 7.6358 1.0562 7.49024L3.02945 6.64291L2.83283 4.38467C2.7992 3.99508 3.13189 3.67278 3.51657 3.71009L5.61183 3.73853L6.35031 1.59586C6.47538 1.23198 6.89431 1.0696 7.23221 1.24727L9.15378 2.13406L10.6989 0.478211C10.961 0.19658 11.4081 0.219216 11.6444 0.517663V0.517655ZM6.05309 11.3878C5.22685 10.5616 6.48333 9.30479 7.30988 10.131L10.0932 12.9146L14.9671 7.51196C15.7466 6.64566 17.0661 7.83242 16.2863 8.69933L10.8151 14.7637C10.4834 15.1717 9.87024 15.205 9.49718 14.8316L6.05309 11.3878Z" fill="#00B1FF"/>
</g>
</g>
<defs>
<clipPath id="clip0">
<rect width="21.8544" height="21.7423" fill="white" transform="translate(0.226562 0.279785)"/>
</clipPath>
<clipPath id="clip1">
<rect width="21.8544" height="21.7423" fill="white" transform="translate(0.226562 0.279785)"/>
</clipPath>
</defs>
</svg>
