<svg width="100" height="100" viewBox="0 0 100 100" fill="none" xmlns="http://www.w3.org/2000/svg">
<path fill-rule="evenodd" clip-rule="evenodd" d="M52.2452 1.09404L58.6326 8.42294L68.185 4.34988C69.7326 3.69454 71.5151 4.53839 72.0091 6.14454L74.9236 15.5901L85.2848 15.7743C86.9596 15.801 88.2707 17.296 88.0636 18.9683L86.9107 28.7992L96.3036 33.2055C97.7252 33.875 98.3408 35.5768 97.6748 37.0071C96.3945 39.6737 94.076 43.111 92.5075 45.7579L99.3105 53.6324C100.409 54.9067 100.164 56.877 98.7969 57.8447L90.7599 63.5534L93.7878 73.5235C94.2775 75.1493 93.2603 76.83 91.6106 77.1577L81.9729 79.0873L80.708 89.4274C80.4925 91.1981 78.7267 92.3428 77.042 91.8239L67.645 89.6819L62.3056 98.6071C61.4394 100.06 59.5057 100.442 58.1597 99.4326L50.2668 93.5102L41.775 99.4833C40.3841 100.459 38.491 100.004 37.6613 98.5283L32.8592 89.9056L22.6701 91.8943C20.9379 92.2262 19.347 90.9238 19.2868 89.1672L18.4053 79.491L8.30723 77.1451C6.6548 76.7639 5.71173 75.0382 6.24481 73.4335L9.41123 64.0667L1.13348 57.7913C-0.293721 56.7097 -0.383231 54.5987 0.9222 53.3934L7.44816 46.3022L2.42358 37.1857C1.59942 35.6963 2.24728 33.8328 3.79621 33.1633L12.8253 29.2661L11.9256 18.8797C11.7717 17.0879 13.294 15.6055 15.0542 15.7771L24.6416 15.9079L28.0207 6.05309C28.593 4.37947 30.5099 3.63264 32.0561 4.44979L40.8487 8.52842L47.9189 0.912628C49.118 -0.38269 51.1636 -0.278578 52.2452 1.09408V1.09404ZM26.6541 51.0893C22.8735 47.2891 28.6228 41.5087 32.4049 45.3089L45.1405 58.1116L67.4425 33.2629C71.0091 29.2785 77.0467 34.7368 73.4787 38.724L48.444 66.6162C46.9259 68.4924 44.1205 68.6457 42.4134 66.9284L26.6541 51.0893Z" fill="url(#paint0_linear)"/>
<defs>
<linearGradient id="paint0_linear" x1="1.76134e-06" y1="100" x2="112.055" y2="92.4442" gradientUnits="userSpaceOnUse">
<stop stop-color="#C439DD"/>
<stop offset="1" stop-color="#4925E9"/>
</linearGradient>
</defs>
</svg>
